<?xml version="1.0" encoding="UTF-8"?>
<svg version="1.1" xmlns="http://www.w3.org/2000/svg" width="393" height="123">
<path d="M0 0 C0.91120605 0.01047363 1.82241211 0.02094727 2.76123047 0.03173828 C3.74736328 0.03818359 4.73349609 0.04462891 5.74951172 0.05126953 C7.29832031 0.07640625 7.29832031 0.07640625 8.87841797 0.10205078 C9.91869141 0.11107422 10.95896484 0.12009766 12.03076172 0.12939453 C14.60520889 0.15301331 17.17920009 0.18594929 19.75341797 0.22705078 C19.75341797 0.88705078 19.75341797 1.54705078 19.75341797 2.22705078 C20.35154297 2.02080078 20.94966797 1.81455078 21.56591797 1.60205078 C23.75341797 1.22705078 23.75341797 1.22705078 26.75341797 3.22705078 C27.41341797 3.55705078 28.07341797 3.88705078 28.75341797 4.22705078 C30.75341797 5.22705078 30.75341797 5.22705078 33.75341797 7.22705078 C34.41341797 7.55705078 35.07341797 7.88705078 35.75341797 8.22705078 C38.75341797 10.22705078 38.75341797 10.22705078 40.19091797 11.72705078 C41.6971733 13.33916699 41.6971733 13.33916699 43.81591797 14.16455078 C46.27480728 15.51297395 46.54087518 16.73063915 47.75341797 19.22705078 C49.02185547 20.43361328 49.02185547 20.43361328 50.31591797 21.66455078 C52.9168131 24.39882515 53.25146956 25.61302224 53.75341797 29.22705078 C54.41341797 29.55705078 55.07341797 29.88705078 55.75341797 30.22705078 C55.42341797 31.54705078 55.09341797 32.86705078 54.75341797 34.22705078 C55.41341797 34.55705078 56.07341797 34.88705078 56.75341797 35.22705078 C56.611285 37.12316513 56.4645489 39.01893472 56.31591797 40.91455078 C56.19410156 42.49816406 56.19410156 42.49816406 56.06982422 44.11376953 C55.78890116 46.87791375 55.35184945 49.51650819 54.75341797 52.22705078 C48.38245866 54.11700043 41.2696329 54.16530042 35.06591797 51.85205078 C32.75341797 50.22705078 32.75341797 50.22705078 31.75341797 48.22705078 C30.42831315 47.56449837 29.09486645 46.91835476 27.75341797 46.28955078 C25.75341797 45.22705078 25.75341797 45.22705078 23.75341797 43.22705078 C23.09341797 43.22705078 22.43341797 43.22705078 21.75341797 43.22705078 C21.25841797 44.21705078 21.25841797 44.21705078 20.75341797 45.22705078 C18.75341797 48.22705078 18.75341797 48.22705078 16.75341797 50.22705078 C16.30611328 50.75685547 15.85880859 51.28666016 15.39794922 51.83251953 C12.76586033 54.06448089 10.35860212 53.56944277 7.04248047 53.46142578 C0.84303027 52.82666979 -3.02412115 50.57746502 -7.24658203 46.22705078 C-7.80345703 45.73205078 -8.36033203 45.23705078 -8.93408203 44.72705078 C-10.51890463 42.91582495 -10.75149144 41.56104927 -11.24658203 39.22705078 C-11.57142578 38.66244141 -11.89626953 38.09783203 -12.23095703 37.51611328 C-15.43898071 30.28572146 -14.84813197 19.86521201 -13.24658203 12.22705078 C-11.24658203 9.91455078 -11.24658203 9.91455078 -9.24658203 8.22705078 C-9.08158203 7.52580078 -8.91658203 6.82455078 -8.74658203 6.10205078 C-8.24658203 4.22705078 -8.24658203 4.22705078 -6.30908203 3.10205078 C-5.62845703 2.81330078 -4.94783203 2.52455078 -4.24658203 2.22705078 C-2.24658203 0.22705078 -2.24658203 0.22705078 0 0 Z M14.75341797 22.22705078 C15.74417297 23.89346084 15.74417297 23.89346084 17.75341797 25.22705078 C19.7498178 25.29145078 21.74981064 25.3471234 23.74560547 25.26611328 C26.18574435 25.21863976 28.39177763 25.6366407 30.75341797 26.22705078 C30.95257813 27.07009766 30.95257813 27.07009766 31.15576172 27.93017578 C31.77778908 30.32071231 32.52456838 32.63740853 33.31591797 34.97705078 C33.58533203 35.77626953 33.85474609 36.57548828 34.13232422 37.39892578 C34.33728516 38.00220703 34.54224609 38.60548828 34.75341797 39.22705078 C38.40658468 37.97728322 39.53407632 37.55606325 41.75341797 34.22705078 C42.08341797 33.23705078 42.41341797 32.24705078 42.75341797 31.22705078 C42.42341797 30.56705078 42.09341797 29.90705078 41.75341797 29.22705078 C42.41341797 29.22705078 43.07341797 29.22705078 43.75341797 29.22705078 C44.08767532 26.85330217 44.08767532 26.85330217 43.75341797 24.22705078 C39.4894384 20.11010499 35.20683251 20.06795424 29.50341797 20.03955078 C28.21951172 20.02537109 26.93560547 20.01119141 25.61279297 19.99658203 C21.60512921 20.23590608 18.54296597 20.98513932 14.75341797 22.22705078 Z M13.75341797 24.22705078 C13.09341797 24.88705078 12.43341797 25.54705078 11.75341797 26.22705078 C12.74341797 26.55705078 13.73341797 26.88705078 14.75341797 27.22705078 C15.41341797 26.56705078 16.07341797 25.90705078 16.75341797 25.22705078 C15.76341797 24.89705078 14.77341797 24.56705078 13.75341797 24.22705078 Z M6.75341797 26.22705078 C6.75341797 27.21705078 6.75341797 28.20705078 6.75341797 29.22705078 C7.74341797 29.55705078 8.73341797 29.88705078 9.75341797 30.22705078 C9.75341797 29.23705078 9.75341797 28.24705078 9.75341797 27.22705078 C8.76341797 26.89705078 7.77341797 26.56705078 6.75341797 26.22705078 Z M3.75341797 28.22705078 C3.75341797 29.21705078 3.75341797 30.20705078 3.75341797 31.22705078 C5.07341797 31.22705078 6.39341797 31.22705078 7.75341797 31.22705078 C6.77491602 30.20600527 5.7736137 29.20643869 4.75341797 28.22705078 C4.42341797 28.22705078 4.09341797 28.22705078 3.75341797 28.22705078 Z M0.75341797 30.22705078 C0.75341797 31.21705078 0.75341797 32.20705078 0.75341797 33.22705078 C1.74341797 33.22705078 2.73341797 33.22705078 3.75341797 33.22705078 C3.75341797 32.56705078 3.75341797 31.90705078 3.75341797 31.22705078 C2.76341797 30.89705078 1.77341797 30.56705078 0.75341797 30.22705078 Z " fill="#3F82B2" transform="translate(40.24658203125,34.77294921875)"/>
<path d="M0 0 C5.00533828 0.03033538 9.13686246 0.29035656 13.828125 2.265625 C13.828125 3.255625 13.828125 4.245625 13.828125 5.265625 C14.488125 5.925625 15.148125 6.585625 15.828125 7.265625 C16.39332503 9.92099872 16.56600698 12.55707213 16.828125 15.265625 C17.158125 14.605625 17.488125 13.945625 17.828125 13.265625 C19.640625 12.703125 19.640625 12.703125 21.828125 12.265625 C22.50875 12.08 23.189375 11.894375 23.890625 11.703125 C27.57097198 10.87207891 29.61890861 11.49502286 32.828125 13.265625 C32.828125 13.925625 32.828125 14.585625 32.828125 15.265625 C33.488125 15.265625 34.148125 15.265625 34.828125 15.265625 C38.05447635 23.22395833 38.05447635 23.22395833 36.828125 28.265625 C30.45716569 30.15557465 23.34433993 30.20387464 17.140625 27.890625 C14.828125 26.265625 14.828125 26.265625 13.828125 24.265625 C12.50302018 23.60307259 11.16957348 22.95692898 9.828125 22.328125 C7.828125 21.265625 7.828125 21.265625 5.828125 19.265625 C5.168125 19.265625 4.508125 19.265625 3.828125 19.265625 C3.498125 19.925625 3.168125 20.585625 2.828125 21.265625 C0.828125 24.265625 0.828125 24.265625 -1.171875 26.265625 C-1.84283203 27.06033203 -1.84283203 27.06033203 -2.52734375 27.87109375 C-5.15943264 30.10305511 -7.56669085 29.60801699 -10.8828125 29.5 C-17.0822627 28.86524401 -20.94941412 26.61603924 -25.171875 22.265625 C-26.038125 21.399375 -26.038125 21.399375 -26.921875 20.515625 C-27.334375 20.103125 -27.746875 19.690625 -28.171875 19.265625 C-26.76766198 14.79767449 -24.4875348 12.49626788 -21.171875 9.265625 C-20.841875 8.275625 -20.511875 7.285625 -20.171875 6.265625 C-19.511875 6.265625 -18.851875 6.265625 -18.171875 6.265625 C-17.841875 6.925625 -17.511875 7.585625 -17.171875 8.265625 C-16.181875 8.595625 -15.191875 8.925625 -14.171875 9.265625 C-13.841875 8.605625 -13.511875 7.945625 -13.171875 7.265625 C-12.511875 6.935625 -11.851875 6.605625 -11.171875 6.265625 C-10.181875 5.605625 -9.191875 4.945625 -8.171875 4.265625 C-7.49125 3.935625 -6.810625 3.605625 -6.109375 3.265625 C-3.65810845 2.00045517 -2.80408968 0.34294622 0 0 Z " fill="#5966AE" transform="translate(58.171875,58.734375)"/>
<path d="M0 0 C4.67502925 0.87508979 7.85901454 2.18582653 11.25390625 5.68359375 C13.97288575 10.15459173 13.79826807 14.59463555 13.25390625 19.68359375 C11.64118058 23.36982386 10.62358125 24.43714375 7.25390625 26.68359375 C7.77082031 27.63621094 8.28773438 28.58882812 8.8203125 29.5703125 C9.48641762 30.83685039 10.1517414 32.10379943 10.81640625 33.37109375 C11.32977539 34.30985352 11.32977539 34.30985352 11.85351562 35.26757812 C13.41434938 38.27888365 14.2984125 40.22207007 13.96875 43.640625 C13.73285156 44.31480469 13.49695313 44.98898438 13.25390625 45.68359375 C11.00390625 46.43359375 11.00390625 46.43359375 8.25390625 46.68359375 C4.61150858 43.73148919 2.67280329 40.16466807 0.50390625 36.05859375 C-0.1096875 34.91132812 -0.72328125 33.7640625 -1.35546875 32.58203125 C-2.74609375 29.68359375 -2.74609375 29.68359375 -2.74609375 27.68359375 C-5.38609375 27.68359375 -8.02609375 27.68359375 -10.74609375 27.68359375 C-10.72289062 28.88757813 -10.6996875 30.0915625 -10.67578125 31.33203125 C-10.65702512 32.9075459 -10.63882476 34.48306723 -10.62109375 36.05859375 C-10.59595703 37.2496875 -10.59595703 37.2496875 -10.5703125 38.46484375 C-10.55273902 40.5385139 -10.64274207 42.61242616 -10.74609375 44.68359375 C-11.40609375 45.34359375 -12.06609375 46.00359375 -12.74609375 46.68359375 C-15.80859375 46.43359375 -15.80859375 46.43359375 -18.74609375 45.68359375 C-20.45129958 42.27318208 -19.93103263 38.37825836 -19.94921875 34.625 C-19.95491882 33.72490707 -19.9606189 32.82481415 -19.9664917 31.89744568 C-19.97594576 29.99178241 -19.98247729 28.08610275 -19.98632812 26.18041992 C-19.99604325 23.26126725 -20.02706642 20.34281574 -20.05859375 17.42382812 C-20.06512277 15.57422294 -20.07037364 13.72461271 -20.07421875 11.875 C-20.08656555 10.99993301 -20.09891235 10.12486603 -20.1116333 9.22328186 C-20.1086322 8.40911301 -20.1056311 7.59494415 -20.10253906 6.75610352 C-20.10618469 6.04043716 -20.10983032 5.32477081 -20.11358643 4.5874176 C-18.51552281 -3.69147294 -6.06788786 -0.69914497 0 0 Z M-10.74609375 8.68359375 C-10.74609375 12.31359375 -10.74609375 15.94359375 -10.74609375 19.68359375 C-8.99296875 19.74546875 -7.23984375 19.80734375 -5.43359375 19.87109375 C-4.44746094 19.90589844 -3.46132813 19.94070312 -2.4453125 19.9765625 C0.26749888 19.91217994 0.26749888 19.91217994 2.08203125 18.328125 C3.44136608 16.67062948 3.44136608 16.67062948 3.69140625 14.18359375 C3.48992471 11.58955013 3.48992471 11.58955013 1.5546875 10.0390625 C-1.20481436 8.41334578 -2.82260016 8.37082427 -5.99609375 8.49609375 C-8.34734375 8.58890625 -8.34734375 8.58890625 -10.74609375 8.68359375 Z " fill="#38A0C6" transform="translate(304.74609375,40.31640625)"/>
<path d="M0 0 C2.38256451 3.48220967 2.85654679 7.18400313 2.625 11.375 C1.965 12.365 1.305 13.355 0.625 14.375 C-1.5625 14.3125 -1.5625 14.3125 -4.375 13.375 C-5.57421875 11.75 -5.57421875 11.75 -6.75 9.8125 C-7.92404309 7.90551752 -7.92404309 7.90551752 -9.375 6.375 C-12.91821553 5.4581978 -12.91821553 5.4581978 -16.375 6.375 C-19.28217073 8.59363029 -20.21481643 9.89444929 -21.375 13.375 C-21.86264012 19.87374237 -22.26868552 25.833986 -18.375 31.375 C-15.57629973 32.77435013 -13.47001208 32.62765405 -10.375 32.375 C-7.81550454 30.52157225 -7.39581202 29.43743607 -6.375 26.375 C-7.344375 26.230625 -8.31375 26.08625 -9.3125 25.9375 C-12.375 25.375 -12.375 25.375 -13.375 24.375 C-13.5 21.875 -13.5 21.875 -13.375 19.375 C-11.50256019 17.50256019 -8.43840482 18.20119608 -5.9375 18.1875 C-4.17599609 18.16623047 -4.17599609 18.16623047 -2.37890625 18.14453125 C0.625 18.375 0.625 18.375 2.625 20.375 C3.36739294 26.81549979 3.41679584 32.89796157 -0.375 38.375 C-2.41556739 40.8406856 -3.24473924 41.33157975 -6.375 42.375 C-14.03673033 43.00657507 -20.24280259 43.33294684 -26.375 38.375 C-32.00750941 31.82911068 -32.90530317 23.72727498 -32.375 15.375 C-31.30288628 8.40626083 -29.03783274 2.48307592 -23.375 -2 C-15.23122489 -6.41121152 -7.60323015 -5.2022101 0 0 Z " fill="#38A0C6" transform="translate(355.375,44.625)"/>
<path d="M0 0 C1.00998047 0.00064453 2.01996094 0.00128906 3.06054688 0.00195312 C4.64125977 0.02612305 4.64125977 0.02612305 6.25390625 0.05078125 C7.82881836 0.04594727 7.82881836 0.04594727 9.43554688 0.04101562 C17.9710158 0.10085639 17.9710158 0.10085639 21.81640625 2.36328125 C21.81640625 4.01328125 21.81640625 5.66328125 21.81640625 7.36328125 C17.84029839 10.07815059 13.67738648 9.58768878 9.06640625 9.48828125 C8.27363281 9.47925781 7.48085938 9.47023438 6.6640625 9.4609375 C4.71471344 9.43745137 2.7655205 9.40158262 0.81640625 9.36328125 C0.81640625 12.33328125 0.81640625 15.30328125 0.81640625 18.36328125 C2.60498047 18.32847656 2.60498047 18.32847656 4.4296875 18.29296875 C5.99608749 18.27420947 7.56249425 18.25600944 9.12890625 18.23828125 C9.91458984 18.22152344 10.70027344 18.20476563 11.50976562 18.1875 C12.26708984 18.18105469 13.02441406 18.17460938 13.8046875 18.16796875 C14.84943237 18.1522583 14.84943237 18.1522583 15.9152832 18.13623047 C17.81640625 18.36328125 17.81640625 18.36328125 20.81640625 20.36328125 C21.06640625 22.92578125 21.06640625 22.92578125 20.81640625 25.36328125 C19.81640625 26.36328125 19.81640625 26.36328125 17.95874023 26.47680664 C17.16798096 26.47156982 16.37722168 26.46633301 15.5625 26.4609375 C14.70849609 26.45771484 13.85449219 26.45449219 12.97460938 26.45117188 C11.62786133 26.43860352 11.62786133 26.43860352 10.25390625 26.42578125 C9.35220703 26.42126953 8.45050781 26.41675781 7.52148438 26.41210938 C5.28643036 26.40028369 3.05141023 26.38234763 0.81640625 26.36328125 C0.81640625 30.32328125 0.81640625 34.28328125 0.81640625 38.36328125 C2.08097656 38.34007812 3.34554688 38.316875 4.6484375 38.29296875 C6.30858785 38.27420999 7.96874458 38.2560099 9.62890625 38.23828125 C10.46228516 38.22152344 11.29566406 38.20476562 12.15429688 38.1875 C13.35795898 38.17783203 13.35795898 38.17783203 14.5859375 38.16796875 C15.32432861 38.15749512 16.06271973 38.14702148 16.82348633 38.13623047 C18.81640625 38.36328125 18.81640625 38.36328125 21.81640625 40.36328125 C21.48640625 42.34328125 21.15640625 44.32328125 20.81640625 46.36328125 C15.93624336 47.99000221 10.92709981 47.63110736 5.81640625 47.67578125 C4.71039063 47.70478516 3.604375 47.73378906 2.46484375 47.76367188 C0.87542969 47.77624023 0.87542969 47.77624023 -0.74609375 47.7890625 C-2.20208984 47.81093628 -2.20208984 47.81093628 -3.6875 47.83325195 C-6.18359375 47.36328125 -6.18359375 47.36328125 -8.00292969 45.55883789 C-9.76400475 42.28395203 -9.53897524 39.10716851 -9.43359375 35.48828125 C-9.42046143 34.71540771 -9.4073291 33.94253418 -9.39379883 33.14624023 C-9.34114319 30.55121634 -9.26198599 27.95764708 -9.18359375 25.36328125 C-9.16280762 24.39116699 -9.14202148 23.41905273 -9.12060547 22.41748047 C-9.05531523 19.41944929 -8.96705936 16.42297519 -8.87109375 13.42578125 C-8.84885742 12.47268066 -8.82662109 11.51958008 -8.80371094 10.53759766 C-8.76793945 9.6460498 -8.73216797 8.75450195 -8.6953125 7.8359375 C-8.66912842 7.04453369 -8.64294434 6.25312988 -8.6159668 5.43774414 C-7.58818598 0.50660151 -4.59026926 -0.01483448 0 0 Z " fill="#38A0C6" transform="translate(371.18359375,39.63671875)"/>
<path d="M0 0 C5.23294262 4.76779217 8.37164637 11.73006601 9.015625 18.7890625 C9.15040101 25.68510148 8.84222414 33.03140307 4.16015625 38.48828125 C-0.56460841 42.67364361 -4.4963602 43.94437405 -10.77734375 43.83203125 C-15.72257335 43.27899909 -19.60108653 41.51894539 -22.76171875 37.62109375 C-27.9038996 29.62050865 -27.83243386 21.79141269 -27.1875 12.5625 C-25.64444558 6.56663141 -22.21681317 2.98243296 -17.1875 -0.4375 C-11.1300176 -3.3345568 -5.96964183 -2.69219142 0 0 Z M-15.1875 9.5625 C-19.12975158 14.97602251 -18.84346715 20.09903703 -18.1875 26.5625 C-16.66256657 30.7742209 -15.90770689 32.08236208 -12.1875 34.5625 C-8.65688654 35.01321661 -6.89384437 35.05301692 -3.9375 33 C-0.22932617 27.83504359 0.1780772 22.81297931 -0.70703125 16.7109375 C-1.75583056 12.0211845 -3.1964485 9.223201 -7.1875 6.5625 C-10.87303144 6.5625 -12.22509752 7.4147582 -15.1875 9.5625 Z " fill="#38A0C6" transform="translate(272.1875,42.4375)"/>
<path d="M0 0 C4.29049022 0.64762116 5.34790741 2.21713167 7.921875 5.54296875 C9.78288208 8.16197028 11.59152697 10.78615792 13.3125 13.5 C16.17176073 10.77808367 18.43602708 7.98451039 20.6875 4.75 C23.85598057 0.58454064 23.85598057 0.58454064 27.6875 -0.125 C30.3125 0.5 30.3125 0.5 31.3125 1.5 C31.00279389 8.06902965 28.28655389 11.84524152 24.375 16.78125 C22.536597 19.2285508 21.32694999 20.88443052 21.25390625 23.99609375 C22.93269418 27.96695376 25.53812478 31.21518276 28.16210938 34.59570312 C30.94989776 38.37689283 31.81398239 40.81714335 31.3125 45.5 C29.625 46.6875 29.625 46.6875 27.3125 47.5 C22.92749025 45.48058762 20.7188467 42.72948254 18 38.8125 C17.30261719 37.81863281 16.60523438 36.82476562 15.88671875 35.80078125 C15.36722656 35.04152344 14.84773438 34.28226563 14.3125 33.5 C10.75791183 36.9139671 7.9075647 40.61228389 4.99609375 44.57421875 C3.3125 46.5 3.3125 46.5 0.3125 47.5 C-1.8125 46.75 -1.8125 46.75 -3.6875 45.5 C-4.6875 42.5 -4.6875 42.5 -3.515625 39.66015625 C-1.11980923 35.5186713 1.78179254 31.91338432 4.765625 28.18359375 C6.51124921 25.66425727 6.51124921 25.66425727 6.33203125 23.0625 C4.7299686 19.03585978 2.09778705 15.79887513 -0.53710938 12.40429688 C-3.31392182 8.63799428 -4.28615348 6.17224956 -3.6875 1.5 C-2.6875 0.5 -2.6875 0.5 0 0 Z " fill="#38A0C6" transform="translate(171.6875,39.5)"/>
<path d="M0 0 C3.94093245 4.32231301 4.39340137 8.00622613 4.2421875 13.71875 C3.78584669 17.32267233 2.72947688 18.82161908 -0.0625 21.125 C-6.43356933 24.36642124 -11.99961417 24.47554764 -19.0625 24.125 C-19.02769531 25.16140625 -18.99289063 26.1978125 -18.95703125 27.265625 C-18.92888518 28.63540042 -18.90158589 30.00519341 -18.875 31.375 C-18.83729492 32.39787109 -18.83729492 32.39787109 -18.79882812 33.44140625 C-18.75112541 36.71699289 -18.85164924 38.77848556 -20.57421875 41.609375 C-21.06535156 42.10953125 -21.55648437 42.6096875 -22.0625 43.125 C-25 42.75 -25 42.75 -28.0625 42.125 C-29.77205668 38.70588664 -29.20396246 34.79264905 -29.1953125 31.03125 C-29.19626923 30.1287854 -29.19722595 29.2263208 -29.19821167 28.29650879 C-29.19889279 26.38663666 -29.19704321 24.47676222 -29.19287109 22.56689453 C-29.18752189 19.63699157 -29.19281837 16.70724192 -29.19921875 13.77734375 C-29.19855796 11.92447883 -29.19727677 10.071614 -29.1953125 8.21875 C-29.19733673 7.33852173 -29.19936096 6.45829346 -29.20144653 5.5513916 C-29.1774583 -0.6450834 -29.1774583 -0.6450834 -28.0625 -2.875 C-19.75617553 -5.74113833 -7.40034111 -4.53082109 0 0 Z M-19.0625 5.125 C-19.0625 8.755 -19.0625 12.385 -19.0625 16.125 C-17.495 16.186875 -15.9275 16.24875 -14.3125 16.3125 C-13.43078125 16.34730469 -12.5490625 16.38210937 -11.640625 16.41796875 C-8.61578417 16.07423684 -7.30666398 15.12272541 -5.0625 13.125 C-5.63702746 9.19424356 -5.63702746 9.19424356 -8.0625 6.125 C-11.6544305 4.79465537 -15.27720013 5.05220577 -19.0625 5.125 Z " fill="#38A0C6" transform="translate(141.0625,43.875)"/>
<path d="M0 0 C0.95712891 0.00386719 1.91425781 0.00773437 2.90039062 0.01171875 C3.89361328 0.03621094 4.88683594 0.06070313 5.91015625 0.0859375 C6.89951172 0.08722656 7.88886719 0.08851562 8.90820312 0.08984375 C13.79939695 0.14905121 17.45927697 0.43171327 21.97265625 2.4609375 C21.97265625 4.1109375 21.97265625 5.7609375 21.97265625 7.4609375 C19.05441381 9.12768071 16.99671246 9.7041383 13.64453125 9.65625 C12.8453125 9.64980469 12.04609375 9.64335938 11.22265625 9.63671875 C10.39765625 9.61996094 9.57265625 9.60320313 8.72265625 9.5859375 C7.8821875 9.57691406 7.04171875 9.56789063 6.17578125 9.55859375 C4.10795021 9.53509567 2.0402663 9.49922658 -0.02734375 9.4609375 C-0.02734375 12.4309375 -0.02734375 15.4009375 -0.02734375 18.4609375 C0.99746094 18.43773438 2.02226562 18.41453125 3.078125 18.390625 C4.43879476 18.37185714 5.79947245 18.35365803 7.16015625 18.3359375 C8.17045898 18.31080078 8.17045898 18.31080078 9.20117188 18.28515625 C13.23797311 18.24577282 16.39502993 18.52671987 19.97265625 20.4609375 C20.84765625 22.4609375 20.84765625 22.4609375 20.97265625 24.4609375 C20.64265625 25.1209375 20.31265625 25.7809375 19.97265625 26.4609375 C17.26549383 27.36332497 15.73488857 27.57945052 12.9609375 27.55859375 C11.82495117 27.55375977 11.82495117 27.55375977 10.66601562 27.54882812 C9.88033203 27.54044922 9.09464844 27.53207031 8.28515625 27.5234375 C7.48787109 27.51892578 6.69058594 27.51441406 5.86914062 27.50976562 C3.90361368 27.497996 1.9381254 27.48006098 -0.02734375 27.4609375 C0.00746094 28.65332031 0.04226562 29.84570312 0.078125 31.07421875 C0.10626378 32.64061092 0.13356385 34.20701831 0.16015625 35.7734375 C0.19786133 36.95196289 0.19786133 36.95196289 0.23632812 38.15429688 C0.25083008 39.2902832 0.25083008 39.2902832 0.265625 40.44921875 C0.28919067 41.49396362 0.28919067 41.49396362 0.31323242 42.55981445 C-0.13438471 45.05844858 -1.0202658 45.95168396 -3.02734375 47.4609375 C-5.65234375 47.2734375 -5.65234375 47.2734375 -8.02734375 46.4609375 C-9.70171146 43.11220208 -9.23368422 39.34060888 -9.265625 35.65625 C-9.27369675 34.78072479 -9.28176849 33.90519958 -9.29008484 33.00314331 C-9.30392596 31.14876283 -9.31464799 29.29435687 -9.32250977 27.43994141 C-9.33973404 24.60400184 -9.38362018 21.76922464 -9.42773438 18.93359375 C-9.4378603 17.13282108 -9.44637672 15.33203849 -9.453125 13.53125 C-9.47938713 12.25920212 -9.47938713 12.25920212 -9.50617981 10.9614563 C-9.49228286 7.18947534 -9.46244546 5.10583589 -7.31494141 1.92285156 C-4.62932864 0.20658163 -3.1686562 -0.02996782 0 0 Z " fill="#38A0C6" transform="translate(219.02734375,39.5390625)"/>
<path d="M0 0 C1.65 0.33 3.3 0.66 5 1 C5 1.99 5 2.98 5 4 C5.66 4.66 6.32 5.32 7 6 C7.56520003 8.65537372 7.73788198 11.29144713 8 14 C8.33 13.34 8.66 12.68 9 12 C10.8125 11.4375 10.8125 11.4375 13 11 C13.680625 10.814375 14.36125 10.62875 15.0625 10.4375 C18.74284698 9.60645391 20.79078361 10.22939786 24 12 C24 12.66 24 13.32 24 14 C24.66 14 25.32 14 26 14 C29.22635135 21.95833333 29.22635135 21.95833333 28 27 C21.62904069 28.88994965 14.51621493 28.93824964 8.3125 26.625 C6 25 6 25 5 23 C3.67489518 22.33744759 2.34144848 21.69130398 1 21.0625 C-1 20 -1 20 -3 18 C-5.06874034 17.3574765 -5.06874034 17.3574765 -7 17 C-7.33 15.68 -7.66 14.36 -8 13 C-7.278125 12.608125 -6.55625 12.21625 -5.8125 11.8125 C-2.75022971 9.83903692 -0.43011846 7.70784628 2 5 C2 4.34 2 3.68 2 3 C1.34 2.67 0.68 2.34 0 2 C0 1.34 0 0.68 0 0 Z " fill="#B748B1" transform="translate(67,60)"/>
<path d="M0 0 C2.31 0.33 4.62 0.66 7 1 C7.07408977 7.06890175 7.12857359 13.13754097 7.16479492 19.20678711 C7.17989271 21.27193791 7.20037274 23.3370566 7.22631836 25.40209961 C7.26265795 28.36840739 7.2797163 31.33429171 7.29296875 34.30078125 C7.30845261 35.2258699 7.32393646 36.15095856 7.33988953 37.1040802 C7.34022942 38.39507881 7.34022942 38.39507881 7.34057617 39.7121582 C7.34723801 40.46938675 7.35389984 41.2266153 7.36076355 42.00679016 C6.89862587 44.56008958 6.06636917 45.46996822 4 47 C-0.42105263 46.57894737 -0.42105263 46.57894737 -2 45 C-2.11362968 41.93257153 -2.16419232 38.88851855 -2.16796875 35.8203125 C-2.17129715 34.89660858 -2.17462555 33.97290466 -2.17805481 33.02120972 C-2.18312858 31.06248474 -2.185463 29.10375108 -2.18530273 27.14501953 C-2.18748566 24.14471179 -2.20562674 21.14477367 -2.22460938 18.14453125 C-2.22754388 16.24479293 -2.22952829 14.34505285 -2.23046875 12.4453125 C-2.23765427 11.54523468 -2.24483978 10.64515686 -2.25224304 9.71780396 C-2.24916641 8.88038666 -2.24608978 8.04296936 -2.24291992 7.18017578 C-2.24434494 6.44372833 -2.24576996 5.70728088 -2.24723816 4.94851685 C-2 3 -2 3 0 0 Z " fill="#38A0C6" transform="translate(154,40)"/>
<path d="M0 0 C0.77279297 0.00410889 1.54558594 0.00821777 2.34179688 0.01245117 C3.60443359 0.01535156 3.60443359 0.01535156 4.89257812 0.01831055 C5.77300781 0.03055664 6.6534375 0.04280273 7.56054688 0.05541992 C8.88119141 0.05638672 8.88119141 0.05638672 10.22851562 0.05737305 C16.77974573 0.10251935 16.77974573 0.10251935 19.06054688 1.24291992 C19.06054688 1.90291992 19.06054688 2.56291992 19.06054688 3.24291992 C17.74054687 3.57291992 16.42054687 3.90291992 15.06054688 4.24291992 C15.06054688 3.58291992 15.06054688 2.92291992 15.06054688 2.24291992 C9.12054688 2.73791992 9.12054688 2.73791992 3.06054688 3.24291992 C3.06054688 3.90291992 3.06054688 4.56291992 3.06054688 5.24291992 C1.97773437 5.05729492 1.97773437 5.05729492 0.87304688 4.86791992 C-2.2698348 4.98881843 -2.2698348 4.98881843 -4.68945312 8.11791992 C-7.64329987 12.22048485 -8.11542712 14.05249581 -8.18945312 19.05541992 C-8.21523438 20.09311523 -8.24101562 21.13081055 -8.26757812 22.19995117 C-7.89883589 25.61959638 -6.81827077 27.40986068 -4.93945312 30.24291992 C-4.93945312 30.90291992 -4.93945312 31.56291992 -4.93945312 32.24291992 C-3.94945312 32.57291992 -2.95945312 32.90291992 -1.93945312 33.24291992 C-3.91945313 35.55291992 -5.89945313 37.86291992 -7.93945312 40.24291992 C-9.25945313 39.91291992 -10.57945313 39.58291992 -11.93945312 39.24291992 C-13.73019158 30.33362611 -14.9759209 21.21976351 -12.93945312 12.24291992 C-10.91601562 9.97338867 -10.91601562 9.97338867 -8.93945312 8.24291992 C-8.77445313 7.54166992 -8.60945313 6.84041992 -8.43945312 6.11791992 C-7.93945312 4.24291992 -7.93945312 4.24291992 -6.00195312 3.11791992 C-5.32132813 2.82916992 -4.64070313 2.54041992 -3.93945312 2.24291992 C-1.93945312 0.24291992 -1.93945312 0.24291992 0 0 Z " fill="#399EB8" transform="translate(39.939453125,34.757080078125)"/>
<path d="M0 0 C1.65 0.33 3.3 0.66 5 1 C5 1.99 5 2.98 5 4 C5.66 4.66 6.32 5.32 7 6 C7.56520003 8.65537372 7.73788198 11.29144713 8 14 C8.33 13.34 8.66 12.68 9 12 C9.99 12.33 10.98 12.66 12 13 C11.2265625 13.61875 11.2265625 13.61875 10.4375 14.25 C9.963125 14.8275 9.48875 15.405 9 16 C9.22757731 18.16299211 9.22757731 18.16299211 10 20 C9.34 20 8.68 20 8 20 C8 20.99 8 21.98 8 23 C10.31 23.66 12.62 24.32 15 25 C14.67 25.99 14.34 26.98 14 28 C8.25 26.25 8.25 26.25 6 24 C3.22285834 22.05025932 3.22285834 22.05025932 0.9375 21 C-1 20 -1 20 -3 18 C-5.06874034 17.3574765 -5.06874034 17.3574765 -7 17 C-7.33 15.68 -7.66 14.36 -8 13 C-7.278125 12.608125 -6.55625 12.21625 -5.8125 11.8125 C-2.75022971 9.83903692 -0.43011846 7.70784628 2 5 C2 4.34 2 3.68 2 3 C1.34 2.67 0.68 2.34 0 2 C0 1.34 0 0.68 0 0 Z " fill="#6458A3" transform="translate(67,60)"/>
<path d="M0 0 C0.90492187 0.02320313 1.80984375 0.04640625 2.7421875 0.0703125 C3.65226562 0.08835938 4.56234375 0.10640625 5.5 0.125 C6.19867188 0.14820313 6.89734375 0.17140625 7.6171875 0.1953125 C7.9471875 1.1853125 8.2771875 2.1753125 8.6171875 3.1953125 C8.13507813 3.58203125 7.65296875 3.96875 7.15625 4.3671875 C6.52460937 4.88796875 5.89296875 5.40875 5.2421875 5.9453125 C4.61570312 6.45578125 3.98921875 6.96625 3.34375 7.4921875 C1.26731655 9.35721563 1.26731655 9.35721563 -0.3828125 13.1953125 C-5.6628125 12.5353125 -10.9428125 11.8753125 -16.3828125 11.1953125 C-13.3828125 7.1953125 -13.3828125 7.1953125 -11.3828125 6.1953125 C-10.3928125 5.5353125 -9.4028125 4.8753125 -8.3828125 4.1953125 C-7.7021875 3.8653125 -7.0215625 3.5353125 -6.3203125 3.1953125 C-0.15382346 0.01260848 -0.15382346 0.01260848 0 0 Z " fill="#458FB8" transform="translate(58.3828125,58.8046875)"/>
<path d="M0 0 C3.48343088 1.25790559 6.07400232 2.75673511 9 5 C9.99 5.33 10.98 5.66 12 6 C11.67 7.32 11.34 8.64 11 10 C11.66 10.33 12.32 10.66 13 11 C12.88590407 12.45922693 12.75834456 13.91740598 12.625 15.375 C12.55539063 16.18710938 12.48578125 16.99921875 12.4140625 17.8359375 C12 20 12 20 10 22 C9.67 19.69 9.34 17.38 9 15 C8.34 15 7.68 15 7 15 C6.67 14.34 6.34 13.68 6 13 C4.68 13 3.36 13 2 13 C-0.01495907 12.38001259 -2.0187415 11.72045764 -4 11 C-3.67 10.34 -3.34 9.68 -3 9 C-2.64830932 7.67139075 -2.31229724 6.33841672 -2 5 C-1.34 5 -0.68 5 0 5 C0 3.35 0 1.7 0 0 Z " fill="#6E4FAF" transform="translate(84,59)"/>
<path d="M0 0 C3.79557881 0 5.62902617 0.50178941 9 2 C9 2.66 9 3.32 9 4 C9.66 4 10.32 4 11 4 C14.22635135 11.95833333 14.22635135 11.95833333 13 17 C7.25 15.125 7.25 15.125 5 14 C5 10.7 5 7.4 5 4 C2.03 3.505 2.03 3.505 -1 3 C-0.67 2.01 -0.34 1.02 0 0 Z " fill="#8358B4" transform="translate(82,70)"/>
<path d="M0 0 C0.66 0.33 1.32 0.66 2 1 C2.625 4.0625 2.625 4.0625 3 7 C3.33 6.34 3.66 5.68 4 5 C4.99 5.33 5.98 5.66 7 6 C6.484375 6.4125 5.96875 6.825 5.4375 7.25 C4.7259375 8.11625 4.7259375 8.11625 4 9 C4.22757731 11.16299211 4.22757731 11.16299211 5 13 C4.34 13 3.68 13 3 13 C3 13.99 3 14.98 3 16 C5.31 16.66 7.62 17.32 10 18 C9.67 18.99 9.34 19.98 9 21 C3.25 19.25 3.25 19.25 1 17 C0.01 16.34 -0.98 15.68 -2 15 C-3.03647024 13.69481525 -4.04422943 12.36538653 -5 11 C-3.989375 10.29875 -2.97875 9.5975 -1.9375 8.875 C-0.24567833 7.57844862 -0.24567833 7.57844862 1 6 C1.02827577 2.74210981 1.02827577 2.74210981 0 0 Z " fill="#914AAE" transform="translate(72,67)"/>
<path d="M0 0 C0.33 0.66 0.66 1.32 1 2 C4.02934491 2.65772428 4.02934491 2.65772428 7 3 C7 5.31 7 7.62 7 10 C4.625 10.125 4.625 10.125 2 10 C1.34 9.34 0.68 8.68 0 8 C-1.0209375 7.7834375 -1.0209375 7.7834375 -2.0625 7.5625 C-2.701875 7.376875 -3.34125 7.19125 -4 7 C-4.33 6.01 -4.66 5.02 -5 4 C-4.01 3.67 -3.02 3.34 -2 3 C-1.34 2.01 -0.68 1.02 0 0 Z " fill="#B449B2" transform="translate(80,71)"/>
<path d="M0 0 C0.70125 0.28875 1.4025 0.5775 2.125 0.875 C0.56451536 4.93226008 -2.3585557 8.35123615 -5.875 10.875 C-7.195 10.875 -8.515 10.875 -9.875 10.875 C-9.60703954 6.31967216 -7.69800375 3.98941418 -4.5078125 0.96875 C-2.875 -0.125 -2.875 -0.125 0 0 Z " fill="#5B6FB6" transform="translate(67.875,62.125)"/>
<path d="M0 0 C3.30557636 2.87639932 4.00868459 5.5045562 4.859375 9.703125 C5.06652027 13.08649771 3.84277691 15.23583464 2 18 C-0.52993801 15.47006199 -0.39753671 14.2003339 -0.6875 10.6875 C-0.77386719 9.74261719 -0.86023438 8.79773437 -0.94921875 7.82421875 C-0.99919116 5.04498421 -0.65249614 2.69338631 0 0 Z " fill="#3EB9D4" transform="translate(27,51)"/>
<path d="M0 0 C1.4540625 0.0309375 1.4540625 0.0309375 2.9375 0.0625 C3.2675 1.0525 3.5975 2.0425 3.9375 3.0625 C3.45539063 3.44921875 2.97328125 3.8359375 2.4765625 4.234375 C1.84492187 4.75515625 1.21328125 5.2759375 0.5625 5.8125 C-0.06398438 6.32296875 -0.69046875 6.8334375 -1.3359375 7.359375 C-3.14562318 9.14449481 -4.06367455 10.74199644 -5.0625 13.0625 C-6.7125 12.7325 -8.3625 12.4025 -10.0625 12.0625 C-9.4025 11.7325 -8.7425 11.4025 -8.0625 11.0625 C-7.77375 10.464375 -7.485 9.86625 -7.1875 9.25 C-5.86284915 6.67429002 -4.16834139 5.02795196 -2.0625 3.0625 C-2.7225 2.4025 -3.3825 1.7425 -4.0625 1.0625 C-3.0625 0.0625 -3.0625 0.0625 0 0 Z " fill="#5182B9" transform="translate(63.0625,58.9375)"/>
<path d="M0 0 C1.66666667 1 3.33333333 2 5 3 C5.9075 3.515625 6.815 4.03125 7.75 4.5625 C10 6 10 6 11 8 C10.67 8.66 10.34 9.32 10 10 C10.66 10.33 11.32 10.66 12 11 C11.01 12.485 11.01 12.485 10 14 C8.125 13.4375 8.125 13.4375 6 12 C4.75 8.375 4.75 8.375 4 5 C2.68 4.67 1.36 4.34 0 4 C0 2.68 0 1.36 0 0 Z " fill="#40529B" transform="translate(85,59)"/>
<path d="M0 0 C0.66 0.33 1.32 0.66 2 1 C2.625 3.0625 2.625 3.0625 3 5 C1.50260417 6.23697917 0.00520833 7.47395833 -1.4921875 8.7109375 C-2.71051161 9.75250992 -3.86660097 10.86660097 -5 12 C-5.66 10.02 -6.32 8.04 -7 6 C-4.69 4.02 -2.38 2.04 0 0 Z " fill="#784DAF" transform="translate(71,68)"/>
<path d="M0 0 C2.62506802 -0.02690844 5.24986173 -0.04679404 7.875 -0.0625 C8.62136719 -0.07087891 9.36773437 -0.07925781 10.13671875 -0.08789062 C15.7734375 -0.11328125 15.7734375 -0.11328125 18 1 C18 1.66 18 2.32 18 3 C16.68 3.33 15.36 3.66 14 4 C14 3.34 14 2.68 14 2 C8.06 2.495 8.06 2.495 2 3 C2 3.66 2 4.32 2 5 C1.01 4.67 0.02 4.34 -1 4 C-0.67 2.68 -0.34 1.36 0 0 Z " fill="#46BCD3" transform="translate(41,35)"/>
<path d="M0 0 C1.09658936 3.28976808 0.79953138 4.71303767 0 8 C-5.75 6.125 -5.75 6.125 -8 5 C-8 4.34 -8 3.68 -8 3 C-7.01 3 -6.02 3 -5 3 C-5 2.34 -5 1.68 -5 1 C-3.35 1.33 -1.7 1.66 0 2 C0 1.34 0 0.68 0 0 Z " fill="#9273AD" transform="translate(95,79)"/>
<path d="M0 0 C0.99 0 1.98 0 3 0 C3 0.66 3 1.32 3 2 C2.01 1.67 1.02 1.34 0 1 C0 0.67 0 0.34 0 0 Z M-4 2 C-2.35 2 -0.7 2 1 2 C1 2.99 1 3.98 1 5 C3.31 5.66 5.62 6.32 8 7 C7.67 7.99 7.34 8.98 7 10 C1.25 8.25 1.25 8.25 -1 6 C-1.99 5.34 -2.98 4.68 -4 4 C-4 3.34 -4 2.68 -4 2 Z " fill="#853A91" transform="translate(74,78)"/>
<path d="M0 0 C1.43861294 0.08746284 2.87597508 0.19565348 4.3125 0.3125 C5.11300781 0.37050781 5.91351563 0.42851563 6.73828125 0.48828125 C9.36272334 1.08206694 10.30820672 1.95780294 12 4 C11 5 11 5 7.125 5.375 C4.9453125 5.3671875 4.9453125 5.3671875 3 5 C1 2.5 1 2.5 0 0 Z " fill="#B97EB1" transform="translate(80,83)"/>
<path d="M0 0 C3 1.5625 3 1.5625 6 4 C6.375 7.75 6.375 7.75 6 11 C3.69 9.02 1.38 7.04 -1 5 C-0.67 3.35 -0.34 1.7 0 0 Z " fill="#477CA9" transform="translate(87,55)"/>
<path d="M0 0 C4 0 4 0 7 1 C7.33 3.31 7.66 5.62 8 8 C7.01 7.67 6.02 7.34 5 7 C5 6.01 5 5.02 5 4 C2.03 3.505 2.03 3.505 -1 3 C-0.67 2.01 -0.34 1.02 0 0 Z " fill="#9643B2" transform="translate(82,70)"/>
<path d="M0 0 C3.68754757 0.49831724 5.60490662 1.10067643 8 4 C7.67 4.99 7.34 5.98 7 7 C5.82780457 6.21654285 4.66236332 5.42297164 3.5 4.625 C2.8503125 4.18414062 2.200625 3.74328125 1.53125 3.2890625 C1.0259375 2.86367188 0.520625 2.43828125 0 2 C0 1.34 0 0.68 0 0 Z " fill="#365D6D" transform="translate(80,48)"/>
<path d="M0 0 C0.99 0.99 1.98 1.98 3 3 C3 3.99 3 4.98 3 6 C2.34 6 1.68 6 1 6 C1 7.32 1 8.64 1 10 C0.34 10 -0.32 10 -1 10 C-0.67 6.7 -0.34 3.4 0 0 Z " fill="#49ADBD" transform="translate(27,51)"/>
<path d="M0 0 C1.0828125 0.2475 1.0828125 0.2475 2.1875 0.5 C4.86427545 0.97587119 7.28949487 1.077443 10 1 C9.67 1.99 9.34 2.98 9 4 C6.36 4 3.72 4 1 4 C0.67 2.68 0.34 1.36 0 0 Z " fill="#C262B1" transform="translate(78,80)"/>
<path d="M0 0 C1.32 1.32 2.64 2.64 4 4 C3.67 4.66 3.34 5.32 3 6 C1.35 5.67 -0.3 5.34 -2 5 C-2 4.34 -2 3.68 -2 3 C-1.34 3 -0.68 3 0 3 C0 2.01 0 1.02 0 0 Z " fill="#458BBA" transform="translate(84,53)"/>
<path d="M0 0 C0.33 0.99 0.66 1.98 1 3 C3.00016466 4.20882096 3.00016466 4.20882096 5 5 C5 5.66 5 6.32 5 7 C3.35 6.67 1.7 6.34 0 6 C-0.38218767 4.34385343 -0.71395102 2.67542976 -1 1 C-0.67 0.67 -0.34 0.34 0 0 Z " fill="#5496C6" transform="translate(34,75)"/>
<path d="M0 0 C0.33 0 0.66 0 1 0 C1.1953125 6.0546875 1.1953125 6.0546875 1 8 C0.34 8.66 -0.32 9.32 -1 10 C-1.33 7.36 -1.66 4.72 -2 2 C-1.34 2 -0.68 2 0 2 C0 1.34 0 0.68 0 0 Z " fill="#686CB4" transform="translate(95,71)"/>
<path d="M0 0 C0.99 0 1.98 0 3 0 C3.33 1.32 3.66 2.64 4 4 C3.34 4 2.68 4 2 4 C2 4.66 2 5.32 2 6 C1.01 5.67 0.02 5.34 -1 5 C-0.67 3.35 -0.34 1.7 0 0 Z " fill="#A157B5" transform="translate(88,76)"/>
<path d="M0 0 C0.33 0.66 0.66 1.32 1 2 C2.32 1.67 3.64 1.34 5 1 C5.12375 1.639375 5.2475 2.27875 5.375 2.9375 C5.684375 3.9584375 5.684375 3.9584375 6 5 C6.66 5.33 7.32 5.66 8 6 C2.25 5.125 2.25 5.125 0 4 C0 2.68 0 1.36 0 0 Z " fill="#3699AF" transform="translate(59,35)"/>
<path d="M0 0 C2.31 0.66 4.62 1.32 7 2 C6.67 2.99 6.34 3.98 6 5 C4.02 4.34 2.04 3.68 0 3 C0 2.01 0 1.02 0 0 Z " fill="#7B387B" transform="translate(75,83)"/>
<path d="M0 0 C2.97 0.495 2.97 0.495 6 1 C5.34 2.32 4.68 3.64 4 5 C2.68 4.34 1.36 3.68 0 3 C0 2.01 0 1.02 0 0 Z " fill="#4E589C" transform="translate(91,68)"/>
<path d="M0 0 C0.66 0 1.32 0 2 0 C2.66 2.64 3.32 5.28 4 8 C2.02 7.34 0.04 6.68 -2 6 C-1.67 5.34 -1.34 4.68 -1 4 C-0.64830932 2.67139075 -0.31229724 1.33841672 0 0 Z " fill="#6A3C84" transform="translate(82,64)"/>
<path d="M0 0 C2 1.0625 2 1.0625 4 3 C4.25 6.6875 4.25 6.6875 4 10 C1.81024227 6.71536341 1.00193437 3.79303725 0 0 Z " fill="#36A1BA" transform="translate(27,47)"/>
<path d="M0 0 C2.125 0.9375 2.125 0.9375 4 2 C3.01 2.99 2.02 3.98 1 5 C0.01 4.34 -0.98 3.68 -2 3 C-2 2.34 -2 1.68 -2 1 C-1.34 0.67 -0.68 0.34 0 0 Z " fill="#44819B" transform="translate(52,61)"/>
<path d="" fill="#000000" transform="translate(0,0)"/>
<path d="" fill="#000000" transform="translate(0,0)"/>
<path d="" fill="#000000" transform="translate(0,0)"/>
<path d="" fill="#000000" transform="translate(0,0)"/>
<path d="" fill="#000000" transform="translate(0,0)"/>
<path d="" fill="#000000" transform="translate(0,0)"/>
<path d="" fill="#000000" transform="translate(0,0)"/>
<path d="" fill="#000000" transform="translate(0,0)"/>
<path d="" fill="#000000" transform="translate(0,0)"/>
<path d="" fill="#000000" transform="translate(0,0)"/>
<path d="" fill="#000000" transform="translate(0,0)"/>
<path d="" fill="#000000" transform="translate(0,0)"/>
<path d="" fill="#000000" transform="translate(0,0)"/>
<path d="" fill="#000000" transform="translate(0,0)"/>
<path d="" fill="#000000" transform="translate(0,0)"/>
<path d="" fill="#000000" transform="translate(0,0)"/>
<path d="" fill="#000000" transform="translate(0,0)"/>
<path d="" fill="#000000" transform="translate(0,0)"/>
<path d="" fill="#000000" transform="translate(0,0)"/>
<path d="" fill="#000000" transform="translate(0,0)"/>
<path d="" fill="#000000" transform="translate(0,0)"/>
<path d="" fill="#000000" transform="translate(0,0)"/>
<path d="" fill="#000000" transform="translate(0,0)"/>
<path d="" fill="#000000" transform="translate(0,0)"/>
<path d="" fill="#000000" transform="translate(0,0)"/>
<path d="" fill="#000000" transform="translate(0,0)"/>
<path d="" fill="#000000" transform="translate(0,0)"/>
<path d="" fill="#000000" transform="translate(0,0)"/>
<path d="" fill="#000000" transform="translate(0,0)"/>
<path d="" fill="#000000" transform="translate(0,0)"/>
<path d="" fill="#000000" transform="translate(0,0)"/>
<path d="" fill="#000000" transform="translate(0,0)"/>
<path d="" fill="#000000" transform="translate(0,0)"/>
<path d="" fill="#000000" transform="translate(0,0)"/>
<path d="" fill="#000000" transform="translate(0,0)"/>
<path d="" fill="#000000" transform="translate(0,0)"/>
<path d="" fill="#000000" transform="translate(0,0)"/>
<path d="" fill="#000000" transform="translate(0,0)"/>
<path d="" fill="#000000" transform="translate(0,0)"/>
<path d="" fill="#000000" transform="translate(0,0)"/>
<path d="" fill="#000000" transform="translate(0,0)"/>
<path d="" fill="#000000" transform="translate(0,0)"/>
<path d="" fill="#000000" transform="translate(0,0)"/>
<path d="" fill="#000000" transform="translate(0,0)"/>
<path d="" fill="#000000" transform="translate(0,0)"/>
<path d="" fill="#000000" transform="translate(0,0)"/>
</svg>
