<?xml version="1.0" encoding="UTF-8"?>
<svg version="1.1" xmlns="http://www.w3.org/2000/svg" width="500" height="500">
<path d="M0 0 C1.68802734 0.25716797 1.68802734 0.25716797 3.41015625 0.51953125 C33.74625153 5.72672368 62.98046871 20.42048723 88 38 C89.28114287 38.88296796 90.56239921 39.7657713 91.84375 40.6484375 C93.14658243 41.55621752 94.44867711 42.46505734 95.75 43.375 C96.37165039 43.80425781 96.99330078 44.23351562 97.63378906 44.67578125 C99.12632338 45.73330981 100.56873624 46.8609173 102 48 C102 48.66 102 49.32 102 50 C102.55945313 50.24105469 103.11890625 50.48210937 103.6953125 50.73046875 C106.48153854 52.26525428 108.54264415 54.15089294 110.875 56.3125 C113.73351281 58.94267007 116.58473299 61.51976385 119.625 63.9375 C120.40875 64.618125 121.1925 65.29875 122 66 C122 66.66 122 67.32 122 68 C122.66 68 123.32 68 124 68 C126.54764405 70.46501775 128.73864914 73.27320605 131 76 C132.07314453 77.27810547 132.07314453 77.27810547 133.16796875 78.58203125 C136.48845166 82.6162063 139.25808766 86.02184443 141 91 C141.66 91 142.32 91 143 91 C144.51832962 93.22283457 145.89959925 95.42727715 147.25 97.75 C147.65259033 98.43594238 148.05518066 99.12188477 148.4699707 99.82861328 C163.31270874 125.36061478 173.25020205 156.63098838 166.21484375 186.3125 C164.3895128 192.22450308 162.10062646 198.25777892 158 203 C157.34 203 156.68 203 156 203 C156 203.66 156 204.32 156 205 C144.76253132 213.47415671 132.87696312 214.35911993 119.28125 212.48828125 C93.54703135 207.03836924 70.18498032 190.29602267 48.75366211 175.80493164 C45.17456778 173.45895732 41.49373609 171.32509044 37.765625 169.2265625 C37.18296875 168.82179688 36.6003125 168.41703125 36 168 C36 167.34 36 166.68 36 166 C33.03 165.01 33.03 165.01 30 164 C29.6596875 164.66644531 29.319375 165.33289063 28.96875 166.01953125 C19.23066557 184.53743117 5.09522243 202.77002466 -15.140625 210.14453125 C-32.34464372 213.95797265 -48.38819772 210.88255008 -63.21875 201.80859375 C-71.33833177 196.52858482 -71.33833177 196.52858482 -74 194 C-74 193.34 -74 192.68 -74 192 C-74.556875 191.773125 -75.11375 191.54625 -75.6875 191.3125 C-78.66159588 189.62449964 -80.72008865 187.53323483 -83 185 C-83 184.34 -83 183.68 -83 183 C-83.66 183 -84.32 183 -85 183 C-109.55762527 151.91021178 -117.38981968 113.52782863 -113.3125 74.5625 C-110.70938012 56.97336361 -103.75471207 41.15234499 -93 27 C-92.236875 25.96875 -91.47375 24.9375 -90.6875 23.875 C-90.130625 23.25625 -89.57375 22.6375 -89 22 C-88.34 22 -87.68 22 -87 22 C-87 21.34 -87 20.68 -87 20 C-86.34 20 -85.68 20 -85 20 C-85 19.34 -85 18.68 -85 18 C-61.47932842 -2.8805962 -29.72052684 -5.20192053 0 0 Z M-60.42578125 125.00390625 C-62.23246853 126.40484282 -64.09776083 127.73184056 -66 129 C-66 129.66 -66 130.32 -66 131 C-66.66 131 -67.32 131 -68 131 C-67.67 131.99 -67.34 132.98 -67 134 C-44.32559382 135.31799562 -31.04781597 127.06662319 -12.61279297 114.73242188 C5.1844403 102.93190167 24.87616356 95.44032393 46.48046875 99.68359375 C56.32635498 103.03036185 63.18927943 108.82355051 68 118 C74.41753064 131.4066226 79.47132949 145.55832918 83 160 C97.23278837 154.6347604 107.65943222 143.33280307 114.18652344 129.82324219 C118.83577321 119.40289485 121.00892386 108.19487276 117.8125 97.0625 C115.73594195 91.8476144 113.30512605 89.02518256 108.06640625 86.6953125 C104.73277345 85.39269067 101.37626733 84.18703316 98 83 C96.60289088 82.44067625 95.2068117 81.87876128 93.8125 81.3125 C40.93342151 61.77263175 -19.876205 93.20530505 -60.42578125 125.00390625 Z " fill="#527ABD" transform="translate(223,144)"/>
<path d="M0 0 C1.80162598 0.00628418 1.80162598 0.00628418 3.63964844 0.01269531 C18.80404436 0.20362127 32.6701278 3.17001076 47.1875 7.3125 C50.21611619 8.13745889 53.20724375 8.60983874 56.3125 9.0625 C61.36528377 9.95733388 65.34019534 11.63508307 69.8203125 14.08984375 C72.10580226 15.27030298 74.29963803 16.04948693 76.75 16.8125 C78.4515625 17.555 78.4515625 17.555 80.1875 18.3125 C81.1875 21 81.1875 21 81.1875 23.3125 C81.5175 22.6525 81.8475 21.9925 82.1875 21.3125 C82.8475 21.3125 83.5075 21.3125 84.1875 21.3125 C85.1775 22.7975 85.1775 22.7975 86.1875 24.3125 C87.84444085 24.69122934 89.51406552 25.01500054 91.1875 25.3125 C96.22902935 27.2030735 101.6548241 29.24714819 104.1875 34.3125 C107.1575 33.8175 107.1575 33.8175 110.1875 33.3125 C110.1875 33.9725 110.1875 34.6325 110.1875 35.3125 C111.1775 35.35375 112.1675 35.395 113.1875 35.4375 C118.05341086 36.10419944 121.73466872 38.93141586 125.1875 42.3125 C125.1875 42.9725 125.1875 43.6325 125.1875 44.3125 C125.74695313 44.55355469 126.30640625 44.79460937 126.8828125 45.04296875 C129.66903854 46.57775428 131.73014415 48.46339294 134.0625 50.625 C136.92101281 53.25517007 139.77223299 55.83226385 142.8125 58.25 C143.988125 59.2709375 143.988125 59.2709375 145.1875 60.3125 C145.1875 60.9725 145.1875 61.6325 145.1875 62.3125 C145.8475 62.3125 146.5075 62.3125 147.1875 62.3125 C149.73514405 64.77751775 151.92614914 67.58570605 154.1875 70.3125 C155.26064453 71.59060547 155.26064453 71.59060547 156.35546875 72.89453125 C159.67595166 76.9287063 162.44558766 80.33434443 164.1875 85.3125 C164.8475 85.3125 165.5075 85.3125 166.1875 85.3125 C167.70574404 87.53520927 169.08655155 89.74026861 170.4375 92.0625 C170.83718994 92.73974121 171.23687988 93.41698242 171.64868164 94.11474609 C183.59383172 114.576368 183.59383172 114.576368 183.1875 123.3125 C182.5275 123.3125 181.8675 123.3125 181.1875 123.3125 C181.1875 124.3025 181.1875 125.2925 181.1875 126.3125 C180.5275 126.3125 179.8675 126.3125 179.1875 126.3125 C178.8575 125.3225 178.5275 124.3325 178.1875 123.3125 C177.1975 122.52875 176.2075 121.745 175.1875 120.9375 C172.1875 118.3125 172.1875 118.3125 171.3125 115.5 C171.27125 114.778125 171.23 114.05625 171.1875 113.3125 C170.5275 113.3125 169.8675 113.3125 169.1875 113.3125 C166.1875 108.92788462 166.1875 108.92788462 166.1875 106.3125 C165.1975 106.3125 164.2075 106.3125 163.1875 106.3125 C162.56875 105.2296875 162.56875 105.2296875 161.9375 104.125 C159.90830132 100.86378784 157.80461311 99.45422614 154.61328125 97.42578125 C154.14277344 97.05839844 153.67226563 96.69101563 153.1875 96.3125 C153.1875 95.6525 153.1875 94.9925 153.1875 94.3125 C152.1975 94.3125 151.2075 94.3125 150.1875 94.3125 C149.754375 93.838125 149.32125 93.36375 148.875 92.875 C147.21300789 91.0337683 147.21300789 91.0337683 144.3125 90.9375 C140.24201103 90.12340221 138.98124202 88.31577267 136.1875 85.3125 C124.01384696 75.96992906 106.22782707 72.753172 91.1875 72.3125 C89.97964844 72.27253906 88.77179688 72.23257813 87.52734375 72.19140625 C40.32113203 71.40076034 -0.96687296 91.56077159 -37.23828125 120.4140625 C-39.8125 122.3125 -39.8125 122.3125 -42.8125 123.3125 C-42.8125 123.9725 -42.8125 124.6325 -42.8125 125.3125 C-45.2875 126.3025 -45.2875 126.3025 -47.8125 127.3125 C-63.04849617 116.41626504 -71.67009135 100.80479439 -75.37109375 82.55859375 C-78.13115074 62.26118353 -73.53749695 41.27792967 -61.8125 24.3125 C-59.3125 22.0625 -59.3125 22.0625 -56.8125 20.3125 C-56.04035156 19.53390625 -55.26820313 18.7553125 -54.47265625 17.953125 C-44.88711056 8.43795776 -34.89360829 5.48944298 -22.02172852 2.81616211 C-19.60373443 2.30387907 -19.60373443 2.30387907 -16.5078125 1.19921875 C-11.01316278 -0.11926485 -5.63120942 -0.02662881 0 0 Z " fill="#4086B7" transform="translate(199.8125,149.6875)"/>
<path d="M0 0 C7.42857143 3.14285714 7.42857143 3.14285714 11 5 C11 5.66 11 6.32 11 7 C11.99 7 12.98 7 14 7 C16.375 9.1875 16.375 9.1875 19 12 C19.928125 12.886875 20.85625 13.77375 21.8125 14.6875 C24 17 24 17 24 19 C24.99 19 25.98 19 27 19 C30 23.22222222 30 23.22222222 30 26 C30.66 26 31.32 26 32 26 C32.5878125 27.36125 32.5878125 27.36125 33.1875 28.75 C35.08909784 32.15976165 36.97586604 33.62973284 40 36 C40 36.99 40 37.98 40 39 C40.66 39 41.32 39 42 39 C42 38.01 42 37.02 42 36 C42.66 36 43.32 36 44 36 C44.33 35.01 44.66 34.02 45 33 C45.62849414 35.14481253 46.25260258 37.29091035 46.875 39.4375 C47.22304688 40.63246094 47.57109375 41.82742188 47.9296875 43.05859375 C49.96921293 50.41321775 51.34733717 57.48926058 51.6875 65.125 C51.72512451 65.94685791 51.76274902 66.76871582 51.80151367 67.61547852 C52.3601578 82.14726175 52.06700011 98.35789103 42 110 C41.34 110 40.68 110 40 110 C40 110.66 40 111.32 40 112 C28.76253132 120.47415671 16.87696312 121.35911993 3.28125 119.48828125 C-23.54646865 113.80679125 -47.62815231 96.05658487 -70 81 C-67 79 -67 79 -64 79 C-63.34 79.99 -62.68 80.98 -62 82 C-61.01 81.505 -61.01 81.505 -60 81 C-60 81.99 -60 82.98 -60 84 C-57.03 84.33 -54.06 84.66 -51 85 C-51 86.65 -51 88.3 -51 90 C-49.02 90.66 -47.04 91.32 -45 92 C-45 92.66 -45 93.32 -45 94 C-39.8306511 93.59443869 -39.8306511 93.59443869 -35 92 C-35 94.31 -35 96.62 -35 99 C-33.35 99.66 -31.7 100.32 -30 101 C-29.67 100.34 -29.34 99.68 -29 99 C-28.8453125 99.9590625 -28.8453125 99.9590625 -28.6875 100.9375 C-28.460625 101.618125 -28.23375 102.29875 -28 103 C-27.01 103.33 -26.02 103.66 -25 104 C-24.195625 104.495 -23.39125 104.99 -22.5625 105.5 C-20.24948845 106.85395798 -18.58741729 107.48251654 -16 108 C-15.01 108.33 -14.02 108.66 -13 109 C-13 108.34 -13 107.68 -13 107 C-15.97 106.505 -15.97 106.505 -19 106 C-19.268125 104.80375 -19.53625 103.6075 -19.8125 102.375 C-20.74346067 98.611259 -22.20094667 95.44166725 -24 92 C-24.144375 91.360625 -24.28875 90.72125 -24.4375 90.0625 C-25.17532834 87.3571294 -26.65242069 85.20807688 -28.078125 82.81640625 C-29.36325827 80.28425808 -29.72631664 77.80525443 -30 75 C-30.99 75.33 -31.98 75.66 -33 76 C-33.6358649 72.82067548 -33.83313886 70.15551342 -33 67 C-30.77903315 65.0844161 -28.47050347 63.92067576 -25.86328125 62.58203125 C-13.60230236 55.80754769 -4.4521164 43.21771 -0.02734375 30.12109375 C2.8650997 19.8024699 2.74968474 10.31131777 0 0 Z " fill="#9357B1" transform="translate(339,237)"/>
<path d="M0 0 C26.04653006 -0.91838891 26.04653006 -0.91838891 37.23828125 8.34375 C51.40720556 21.66442385 60.41006635 49.09335262 61.02734375 68.1484375 C61.01832031 68.75945312 61.00929688 69.37046875 61 70 C61.66 70 62.32 70 63 70 C67 80 67 80 67.97265625 82.51953125 C69.39745696 85.95963943 71.14515921 89.20742401 72.87890625 92.5 C74 95 74 95 74.4921875 97.73046875 C74.65976562 98.47941406 74.82734375 99.22835937 75 100 C77.47636012 101.37466625 77.47636012 101.37466625 80 102 C80 102.66 80 103.32 80 104 C75.04664674 103.50466467 71.22737451 102.69014742 67 100 C65.99431758 98.33675599 64.99335201 96.67063747 64 95 C62.68 95 61.36 95 60 95 C58.25 93.75 58.25 93.75 57 92 C57 90.68 57 89.36 57 88 C56.443125 88.350625 55.88625 88.70125 55.3125 89.0625 C52.41468152 90.23729128 50.9482975 89.93104132 48 89 C47.34 88.34 46.68 87.68 46 87 C45.154375 86.71125 44.30875 86.4225 43.4375 86.125 C42.633125 85.75375 41.82875 85.3825 41 85 C40.34765625 82.9296875 40.34765625 82.9296875 40 81 C39.06027344 80.87044922 39.06027344 80.87044922 38.1015625 80.73828125 C35.63217125 80.31373291 33.35643158 79.85727584 31 79 C29.4375 76.375 29.4375 76.375 29 74 C28.46890625 74.38929688 27.9378125 74.77859375 27.390625 75.1796875 C25 76 25 76 21.984375 74.8828125 C20.91703125 74.30273438 19.8496875 73.72265625 18.75 73.125 C17.67234375 72.55007813 16.5946875 71.97515625 15.484375 71.3828125 C14.66453125 70.92648437 13.8446875 70.47015625 13 70 C13 69.34 13 68.68 13 68 C11.02 67.34 9.04 66.68 7 66 C6.6596875 66.66644531 6.319375 67.33289063 5.96875 68.01953125 C0.0617132 79.25232728 -7.29244908 88.79438404 -16 98 C-16.77923828 98.88171875 -16.77923828 98.88171875 -17.57421875 99.78125 C-19 101 -19 101 -22 101 C-22.33 99.02 -22.66 97.04 -23 95 C-20.33333333 94.33333333 -17.66666667 93.66666667 -15 93 C-14.87882812 92.39671875 -14.75765625 91.7934375 -14.6328125 91.171875 C-14.38144531 89.97304688 -14.38144531 89.97304688 -14.125 88.75 C-13.96257812 87.96109375 -13.80015625 87.1721875 -13.6328125 86.359375 C-13.00106448 84.00396882 -12.24959008 82.09190636 -11 80 C-10.34 79.67 -9.68 79.34 -9 79 C-8.01 79.33 -7.02 79.66 -6 80 C-6 79.34 -6 78.68 -6 78 C-5.34 78 -4.68 78 -4 78 C-4 76.68 -4 75.36 -4 74 C-3.34 74 -2.68 74 -2 74 C-1.34 72.68 -0.68 71.36 0 70 C0.66 70 1.32 70 2 70 C2 67.69 2 65.38 2 63 C1.01 62.67 0.02 62.34 -1 62 C-2 61 -3 60 -4 59 C-5.3153341 58.29848848 -6.65117592 57.63474075 -8 57 C-8.73992187 56.525625 -9.47984375 56.05125 -10.2421875 55.5625 C-14.12032431 53.36525535 -18.19252749 52.30950415 -22.453125 51.0625 C-23.71382812 50.5365625 -23.71382812 50.5365625 -25 50 C-25.33 49.01 -25.66 48.02 -26 47 C-25.67 46.67 -25.34 46.34 -25 46 C-26.11375 45.71125 -27.2275 45.4225 -28.375 45.125 C-32 44 -32 44 -34 42 C-36.10185944 41.57595263 -36.10185944 41.57595263 -38.4375 41.4375 C-41.23687087 41.21152113 -43.30459034 40.89846989 -46 40 C-47.155 40.020625 -48.31 40.04125 -49.5 40.0625 C-53 40 -53 40 -56 38 C-56 34.23279332 -55.38884658 32.91140677 -53 30 C-51.0546875 29.33984375 -51.0546875 29.33984375 -48.875 28.875 C-47.59625 28.58625 -46.3175 28.2975 -45 28 C-44.67 27.01 -44.34 26.02 -44 25 C-41.10461516 22.10461516 -39.55085087 21.06764835 -35.4375 20.5625 C-31.09544269 19.85198153 -30.52227641 18.4471111 -28 15 C-25.5028228 13.7514114 -23.78683488 13 -21 13 C-20.67 12.01 -20.34 11.02 -20 10 C-18.02015519 9.27566653 -16.01416562 8.62256028 -14 8 C-12.65663122 7.33232168 -11.32351639 6.64371412 -10 5.9375 C-6.68616336 4.22322681 -3.74641074 3.37464107 0 3 C0 2.01 0 1.02 0 0 Z " fill="#686AB8" transform="translate(246,242)"/>
<path d="M0 0 C1.68802734 0.25716797 1.68802734 0.25716797 3.41015625 0.51953125 C32.26743773 5.47288521 71.35707868 20.20491563 92 42 C91.01 42.33 90.02 42.66 89 43 C89 42.34 89 41.68 89 41 C88.34 41 87.68 41 87 41 C87 40.34 87 39.68 87 39 C86.154375 39.268125 85.30875 39.53625 84.4375 39.8125 C80.14900558 40.04641788 78.96291132 38.91324005 75.7265625 36.33984375 C71.9418053 33.40280366 67.44354256 31.69900157 63 30 C62.67 30.66 62.34 31.32 62 32 C61.67 30.35 61.34 28.7 61 27 C60.34 27 59.68 27 59 27 C58.67 27.99 58.34 28.98 58 30 C57 27 57 27 57 24 C56.45472656 23.87496094 55.90945313 23.74992187 55.34765625 23.62109375 C52.65009024 22.9074282 50.06244024 22.00890703 47.4375 21.0625 C46.01244141 20.55396484 46.01244141 20.55396484 44.55859375 20.03515625 C42 19 42 19 39 17 C36.78143974 16.61943376 34.54910077 16.31638441 32.3125 16.0625 C24.58124163 15.05373234 24.58124163 15.05373234 21.125 13.5625 C15.44964334 11.14068832 9.1930276 10.42840982 3.14550781 9.39624023 C1.664693 9.12275794 0.18988287 8.81535371 -1.27832031 8.48071289 C-18.02452253 4.71704623 -35.89719019 5.67560604 -52.02954102 11.38183594 C-54.20215613 12.06341957 -56.36158835 12.48805564 -58.59765625 12.9140625 C-62.82418544 13.80991277 -65.78281386 15.45675595 -69.3125 18 C-74.79444153 21.89826953 -74.79444153 21.89826953 -77.296875 23.13671875 C-79.60428662 24.30630124 -79.87955492 25.69320131 -81 28 C-82.14275391 29.05380859 -82.14275391 29.05380859 -83.30859375 30.12890625 C-86.50746312 33.5413431 -88.21714935 36.89862974 -90.125 41.125 C-90.47119385 41.87692627 -90.8173877 42.62885254 -91.17407227 43.40356445 C-93.74660853 49.12514487 -95.7822859 54.83091946 -97 61 C-97.18433594 61.91007812 -97.36867188 62.82015625 -97.55859375 63.7578125 C-98.10327152 67.75854299 -98.1488038 71.65530652 -98.125 75.6875 C-98.12209961 76.87255127 -98.12209961 76.87255127 -98.11914062 78.08154297 C-98.07495442 84.09209392 -97.73624052 90.03119294 -97 96 C-97.33 94.68 -97.66 93.36 -98 92 C-98.99 92 -99.98 92 -101 92 C-101.38133299 90.0085944 -101.71325582 88.00720923 -102 86 C-101.505 85.505 -101.505 85.505 -101 85 C-100.86700104 83.5454291 -100.79665308 82.08501299 -100.75390625 80.625 C-100.72103516 79.72136719 -100.68816406 78.81773437 -100.65429688 77.88671875 C-100.59409557 75.99357987 -100.53670581 74.10034904 -100.48242188 72.20703125 C-100.25979266 66.25064962 -99.50228687 60.7655334 -98 55 C-97.79117188 54.13246094 -97.58234375 53.26492187 -97.3671875 52.37109375 C-96.68359375 49.68554688 -96.68359375 49.68554688 -96 47 C-95.34 47 -94.68 47 -94 47 C-93.9175 46.360625 -93.835 45.72125 -93.75 45.0625 C-92.70479628 40.79458483 -90.85908174 36.96892333 -89 33 C-89.99 33 -90.98 33 -92 33 C-93.5044892 35.11290012 -93.5044892 35.11290012 -95 38 C-96.36167951 40.08233446 -97.73109304 42.15908523 -99.109375 44.23046875 C-99.40328125 44.81441406 -99.6971875 45.39835937 -100 46 C-99.67 46.66 -99.34 47.32 -99 48 C-99.639375 48.185625 -100.27875 48.37125 -100.9375 48.5625 C-103.40277185 49.92071493 -103.40277185 49.92071493 -103.625 53.4375 C-103.74875 54.613125 -103.8725 55.78875 -104 57 C-104.66 57.99 -105.32 58.98 -106 60 C-106.50845649 62.10162017 -107.00367702 64.20747336 -107.42578125 66.328125 C-108 69 -108 69 -108.79296875 71.671875 C-113.22060747 87.38687439 -113.79507691 110.86810605 -107 126 C-106.34 126 -105.68 126 -105 126 C-104.45627049 129.05847848 -104 131.88772805 -104 135 C-103.68812089 137.83641406 -103.36208455 140.67055922 -103.0234375 143.50390625 C-103.01570313 144.32761719 -103.00796875 145.15132812 -103 146 C-103.99 146.99 -103.99 146.99 -105 148 C-116.58463728 115.71869848 -119.44127196 77.14610583 -104.50390625 45.40844727 C-101.26219277 38.83047033 -97.43098975 32.83082979 -93 27 C-92.236875 25.96875 -91.47375 24.9375 -90.6875 23.875 C-90.130625 23.25625 -89.57375 22.6375 -89 22 C-88.34 22 -87.68 22 -87 22 C-87 21.34 -87 20.68 -87 20 C-86.34 20 -85.68 20 -85 20 C-85 19.34 -85 18.68 -85 18 C-61.47932842 -2.8805962 -29.72052684 -5.20192053 0 0 Z " fill="#3FBBD4" transform="translate(223,144)"/>
<path d="M0 0 C0.66 0.99 1.32 1.98 2 3 C2.66 2.67 3.32 2.34 4 2 C4 2.99 4 3.98 4 5 C6.97 5.33 9.94 5.66 13 6 C13 7.65 13 9.3 13 11 C14.98 11.66 16.96 12.32 19 13 C19 13.66 19 14.32 19 15 C24.1693489 14.59443869 24.1693489 14.59443869 29 13 C29 15.31 29 17.62 29 20 C31.475 20.99 31.475 20.99 34 22 C34.33 21.34 34.66 20.68 35 20 C35.103125 20.639375 35.20625 21.27875 35.3125 21.9375 C35.539375 22.618125 35.76625 23.29875 36 24 C36.99 24.33 37.98 24.66 39 25 C39.804375 25.495 40.60875 25.99 41.4375 26.5 C43.75051155 27.85395798 45.41258271 28.48251654 48 29 C48.99 29.33 49.98 29.66 51 30 C51 29.34 51 28.68 51 28 C49.02 27.67 47.04 27.34 45 27 C44.731875 25.80375 44.46375 24.6075 44.1875 23.375 C43.25457037 19.61662635 41.86590348 16.407302 40 13 C39.505 12.01 39.505 12.01 39 11 C39.66 10.01 40.32 9.02 41 8 C41.66 8 42.32 8 43 8 C42.9071875 9.051875 42.9071875 9.051875 42.8125 10.125 C43.10191728 14.56273165 44.68939355 17.7739488 47.9375 20.8125 C49.98016594 21.98858039 51.68867929 22.58726416 54 23 C53.34 23 52.68 23 52 23 C52.495 25.97 52.495 25.97 53 29 C54.65 29 56.3 29 58 29 C58.495 30.98 58.495 30.98 59 33 C59.99 33 60.98 33 62 33 C62.33 33.66 62.66 34.32 63 35 C65.32156597 35.40729228 67.6568787 35.74438677 70 36 C69.505 36.99 69.505 36.99 69 38 C50.96274816 41.78917616 27.4458332 23.92693379 12.8203125 14.50390625 C6.51328957 10.38613855 0.24220976 6.21528532 -6 2 C-3 0 -3 0 0 0 Z " fill="#BC5AB2" transform="translate(275,316)"/>
<path d="M0 0 C-2.31197526 2.31197526 -3.69201727 2.60942587 -6.8125 3.4375 C-10.63909593 4.522161 -13.64622375 5.82990949 -17 8 C-17.70125 8.165 -18.4025 8.33 -19.125 8.5 C-21.09868896 8.85860908 -21.09868896 8.85860908 -22.4375 10.4375 C-24 12 -24 12 -26.4375 12.875 C-29.20913085 13.83631187 -29.20913085 13.83631187 -30.875 16.5625 C-33.7106812 19.81519314 -35.82028458 19.54403104 -40 20 C-41.79385992 21.4579186 -41.79385992 21.4579186 -43 23 C-43.66 23 -44.32 23 -45 23 C-45.33 24.32 -45.66 25.64 -46 27 C-47.27875 27.2475 -48.5575 27.495 -49.875 27.75 C-53.19126493 28.52350745 -53.19126493 28.52350745 -55.5 30.9375 C-56.11780001 33.13221824 -56.11780001 33.13221824 -56 36 C-55.34 36.66 -54.68 37.32 -54 38 C-58.10402717 38.08832196 -62.20780456 38.14083048 -66.3125 38.1875 C-67.46041016 38.21263672 -68.60832031 38.23777344 -69.79101562 38.26367188 C-77.34646181 38.32788247 -83.83519713 37.41795059 -91 35 C-91 34.67 -91 34.34 -91 34 C-89.20369141 33.99613281 -89.20369141 33.99613281 -87.37109375 33.9921875 C-66.64577066 33.6451947 -53.4379164 24.98949812 -36.61279297 13.73242188 C-10.94188109 -3.28876955 -10.94188109 -3.28876955 0 0 Z " fill="#66AAC8" transform="translate(247,244)"/>
<path d="M0 0 C0.33 1.32 0.66 2.64 1 4 C-0.98 4.99 -0.98 4.99 -3 6 C-2.896875 7.010625 -2.79375 8.02125 -2.6875 9.0625 C-3.09617995 14.21186741 -4.77792197 16.05295442 -8 20 C-7.67 20.66 -7.34 21.32 -7 22 C-7.639375 22.185625 -8.27875 22.37125 -8.9375 22.5625 C-11.40277185 23.92071493 -11.40277185 23.92071493 -11.625 27.4375 C-11.74875 28.613125 -11.8725 29.78875 -12 31 C-12.99 32.485 -12.99 32.485 -14 34 C-14.50845649 36.10162017 -15.00367702 38.20747336 -15.42578125 40.328125 C-16 43 -16 43 -16.79296875 45.671875 C-21.22060747 61.38687439 -21.79507691 84.86810605 -15 100 C-14.34 100 -13.68 100 -13 100 C-12.45627049 103.05847848 -12 105.88772805 -12 109 C-11.68812089 111.83641406 -11.36208455 114.67055922 -11.0234375 117.50390625 C-11.01570313 118.32761719 -11.00796875 119.15132813 -11 120 C-11.99 120.99 -11.99 120.99 -13 122 C-24.58390997 89.72072517 -27.44403791 51.14249367 -12.50317383 19.4074707 C-9.18826131 12.67903692 -5.36046984 5.36046984 0 0 Z " fill="#47C1D0" transform="translate(131,170)"/>
<path d="M0 0 C0.99 0.66 1.98 1.32 3 2 C1.68 2.33 0.36 2.66 -1 3 C-0.74863281 3.83402344 -0.49726563 4.66804688 -0.23828125 5.52734375 C0.07983333 10.16347267 -1.71744677 12.83471745 -4.1875 16.5625 C-4.85458984 17.60108154 -4.85458984 17.60108154 -5.53515625 18.66064453 C-10.80328946 26.6046838 -17.28327768 33.28327768 -24 40 C-24.99 40 -25.98 40 -27 40 C-27.33 38.02 -27.66 36.04 -28 34 C-25.33333333 33.33333333 -22.66666667 32.66666667 -20 32 C-19.87882813 31.39671875 -19.75765625 30.7934375 -19.6328125 30.171875 C-19.46523437 29.37265625 -19.29765625 28.5734375 -19.125 27.75 C-18.96257812 26.96109375 -18.80015625 26.1721875 -18.6328125 25.359375 C-18.00106448 23.00396882 -17.24959008 21.09190636 -16 19 C-15.34 18.67 -14.68 18.34 -14 18 C-13.01 18.33 -12.02 18.66 -11 19 C-11 18.34 -11 17.68 -11 17 C-10.34 17 -9.68 17 -9 17 C-9 15.68 -9 14.36 -9 13 C-8.34 13 -7.68 13 -7 13 C-6.34 11.68 -5.68 10.36 -5 9 C-4.34 9 -3.68 9 -3 9 C-2.67 6.69 -2.34 4.38 -2 2 C-1.34 2 -0.68 2 0 2 C0 1.34 0 0.68 0 0 Z " fill="#825FB2" transform="translate(251,303)"/>
<path d="M0 0 C0.66 0.99 1.32 1.98 2 3 C2.66 2.67 3.32 2.34 4 2 C4 2.99 4 3.98 4 5 C6.97 5.33 9.94 5.66 13 6 C13 7.65 13 9.3 13 11 C14.98 11.66 16.96 12.32 19 13 C19 13.66 19 14.32 19 15 C24.1693489 14.59443869 24.1693489 14.59443869 29 13 C29 15.31 29 17.62 29 20 C31.475 20.99 31.475 20.99 34 22 C34.33 21.34 34.66 20.68 35 20 C35.103125 20.639375 35.20625 21.27875 35.3125 21.9375 C35.539375 22.618125 35.76625 23.29875 36 24 C36.99 24.33 37.98 24.66 39 25 C38.34 25.66 37.68 26.32 37 27 C32.76177979 26.68621001 29.80514084 24.89888043 26.24609375 22.68359375 C25.14330078 22.00103516 24.04050781 21.31847656 22.90429688 20.61523438 C21.7486913 19.88933345 20.59309236 19.16342196 19.4375 18.4375 C18.32052734 17.74591797 17.20355469 17.05433594 16.05273438 16.34179688 C8.60061039 11.70635975 1.27313606 6.91062481 -6 2 C-3 0 -3 0 0 0 Z " fill="#A951B2" transform="translate(275,316)"/>
<path d="M0 0 C0.38218767 1.65614657 0.71395102 3.32457024 1 5 C0.67 5.33 0.34 5.66 0 6 C0.66 6.66 1.32 7.32 2 8 C-2.10402717 8.08832196 -6.20780456 8.14083048 -10.3125 8.1875 C-11.46041016 8.21263672 -12.60832031 8.23777344 -13.79101562 8.26367188 C-21.34646181 8.32788247 -27.83519713 7.41795059 -35 5 C-35 4.67 -35 4.34 -35 4 C-33.16888672 3.96132813 -33.16888672 3.96132813 -31.30078125 3.921875 C-22.11443822 3.63573687 -14.13773237 2.98188452 -5.46875 -0.2578125 C-3 -1 -3 -1 0 0 Z " fill="#44A2CC" transform="translate(191,274)"/>
<path d="M0 0 C6.16587925 0.37750281 11.61260209 2.10231808 17.40698242 4.125 C21.03965333 5.38265635 24.60460341 6.43945332 28.375 7.1875 C29.57125 7.455625 30.7675 7.72375 32 8 C32.495 8.99 32.495 8.99 33 10 C33.99 10.66 34.98 11.32 36 12 C29.02887846 14.32370718 19.80818082 11.70329925 13.15234375 8.86328125 C8.23309681 6.89022576 3.07309899 5.52347637 -2 4 C-1.34 2.68 -0.68 1.36 0 0 Z " fill="#34B9D4" transform="translate(229,148)"/>
<path d="M0 0 C0.33 0 0.66 0 1 0 C1.01981934 0.55236328 1.03963867 1.10472656 1.06005859 1.67382812 C1.07157589 22.30689522 1.07157589 22.30689522 6 42 C6.66 42 7.32 42 8 42 C8.54372951 45.05847848 9 47.88772805 9 51 C9.31187911 53.83641406 9.63791545 56.67055922 9.9765625 59.50390625 C9.98429687 60.32761719 9.99203125 61.15132813 10 62 C9.34 62.66 8.68 63.32 8 64 C7.21639101 61.81642555 6.44851551 59.628963 5.6875 57.4375 C5.25824219 56.21933594 4.82898438 55.00117188 4.38671875 53.74609375 C0.46919864 41.06723729 -0.41115789 29.19642253 -0.1875 16.0625 C-0.17239942 14.49285164 -0.15872068 12.92318893 -0.14648438 11.35351562 C-0.11396458 7.56864524 -0.06249262 3.78448922 0 0 Z " fill="#67C4D1" transform="translate(110,228)"/>
<path d="M0 0 C10.76161417 7.17440945 16.46529337 22.95140864 20 35 C20.25382499 38.68046241 19.88769843 40.8145089 18 44 C17.34 43.67 16.68 43.34 16 43 C16.33 41.35 16.66 39.7 17 38 C16.34 38 15.68 38 15 38 C15.33 35.36 15.66 32.72 16 30 C15.34 30 14.68 30 14 30 C13.67 27.69 13.34 25.38 13 23 C12.67 23.66 12.34 24.32 12 25 C11.34 25 10.68 25 10 25 C9.67 24.01 9.34 23.02 9 22 C9.33 21.34 9.66 20.68 10 20 C9.49465842 18.05867224 9.49465842 18.05867224 8.625 16 C8.21121094 14.948125 8.21121094 14.948125 7.7890625 13.875 C7.23722274 12.56369761 6.6362454 11.27249081 6 10 C2.88214887 10.64644661 2.88214887 10.64644661 2 13 C1.375 10.6875 1.375 10.6875 1 8 C1.66 7.01 2.32 6.02 3 5 C2.01 4.67 1.02 4.34 0 4 C0 2.68 0 1.36 0 0 Z " fill="#8B69B8" transform="translate(281,249)"/>
<path d="M0 0 C2.375 0.4375 2.375 0.4375 5 2 C6.15166026 4.9289821 6.75430523 7.86446678 7 11 C6.67 11.66 6.34 12.32 6 13 C8.31 13.33 10.62 13.66 13 14 C14.41620179 19.46249264 15.11139091 24.31906353 15 30 C7.74122418 23.84103869 1.51916788 13.18755343 -1 4 C-0.59375 1.75 -0.59375 1.75 0 0 Z " fill="#479CC5" transform="translate(120,291)"/>
<path d="M0 0 C-0.33 0.99 -0.66 1.98 -1 3 C-2.31774196 3.39044206 -3.65667272 3.70955086 -5 4 C-10.33692437 6.52084513 -15.33619795 9.53779056 -20.390625 12.57421875 C-23 14 -23 14 -25 14 C-25 13.34 -25 12.68 -25 12 C-25.66 12 -26.32 12 -27 12 C-27.33 11.01 -27.66 10.02 -28 9 C-25.3714973 5.05724595 -23.46253586 5.07451308 -18.9375 3.9375 C-16.60973393 3.34905964 -14.29185228 2.71566057 -12 2 C-11.67 1.34 -11.34 0.68 -11 0 C-7.0832314 -1.23098442 -3.97610732 -0.83220851 0 0 Z " fill="#33BDD4" transform="translate(177,148)"/>
<path d="M0 0 C0.66 0.33 1.32 0.66 2 1 C1.67 2.65 1.34 4.3 1 6 C1.66 6 2.32 6 3 6 C2.65978036 9.17538332 1.97533396 10.02276865 -0.4375 12.25 C-3 14 -3 14 -5 14 C-5.33 14.99 -5.66 15.98 -6 17 C-6.66 15.68 -7.32 14.36 -8 13 C-10.15536873 12.79074918 -10.15536873 12.79074918 -11.9375 14.5625 C-12.618125 15.036875 -13.29875 15.51125 -14 16 C-14.99 15.67 -15.98 15.34 -17 15 C-16.34 14.01 -15.68 13.02 -15 12 C-14.34 12 -13.68 12 -13 12 C-13 11.34 -13 10.68 -13 10 C-12.34 10 -11.68 10 -11 10 C-11 9.34 -11 8.68 -11 8 C-9.217871 6.55925285 -7.37339724 5.19489351 -5.5 3.875 C-4.4790625 3.15054688 -3.458125 2.42609375 -2.40625 1.6796875 C-1.6121875 1.12539062 -0.818125 0.57109375 0 0 Z " fill="#46C2D9" transform="translate(149,154)"/>
<path d="M0 0 C1.6990169 2.0683684 2.89762624 3.55211478 3.5 6.1875 C3.665 6.785625 3.83 7.38375 4 8 C4.99 8.33 5.98 8.66 7 9 C7.103125 9.70125 7.20625 10.4025 7.3125 11.125 C8.10571772 14.44209227 9.2659086 17.06538379 11 20 C11.99 20.33 12.98 20.66 14 21 C14 21.66 14 22.32 14 23 C14.66 23.66 15.32 24.32 16 25 C16.2475 26.0209375 16.2475 26.0209375 16.5 27.0625 C16.665 27.701875 16.83 28.34125 17 29 C17.66 29.33 18.32 29.66 19 30 C19 30.66 19 31.32 19 32 C21.832168 32.33448259 21.832168 32.33448259 25 32 C27.37719693 30.12498069 27.37719693 30.12498069 29 28 C30.1875 29.6875 30.1875 29.6875 31 32 C29.8125 34.6875 29.8125 34.6875 28 37 C26.515 37.495 26.515 37.495 25 38 C13.0550823 31.12583777 5.66890322 18.58503671 1 6 C0.61207352 4.00986831 0.26147558 2.01065702 0 0 Z " fill="#2B5694" transform="translate(127,239)"/>
<path d="M0 0 C0.9075 0.845625 1.815 1.69125 2.75 2.5625 C5.15392344 4.66933528 5.15392344 4.66933528 8.25 4.9375 C10.18156409 4.01136225 10.18156409 4.01136225 12 2 C12.33 3.32 12.66 4.64 13 6 C13.66 6 14.32 6 15 6 C16.80230168 9.82989106 17.19622241 12.78121808 17 17 C16.34 17 15.68 17 15 17 C15 17.99 15 18.98 15 20 C14.34 20 13.68 20 13 20 C12.67 19.01 12.34 18.02 12 17 C11.01 16.21625 10.02 15.4325 9 14.625 C6 12 6 12 5.125 9.1875 C5.08375 8.465625 5.0425 7.74375 5 7 C4.34 7 3.68 7 3 7 C0 2.61538462 0 2.61538462 0 0 Z " fill="#3F6CAB" transform="translate(366,256)"/>
<path d="M0 0 C1 3 1 3 0.07421875 5.375 C-0.38339844 6.24125 -0.84101563 7.1075 -1.3125 8 C-1.76238281 8.86625 -2.21226562 9.7325 -2.67578125 10.625 C-4 13 -4 13 -6 16 C-6.66 16 -7.32 16 -8 16 C-8 16.66 -8 17.32 -8 18 C-13.29411765 22 -13.29411765 22 -17 22 C-16.67 20.02 -16.34 18.04 -16 16 C-14.02 15.67 -12.04 15.34 -10 15 C-9.67 11.7 -9.34 8.4 -9 5 C-6.03 5.495 -6.03 5.495 -3 6 C-2.87625 5.195625 -2.7525 4.39125 -2.625 3.5625 C-2.41875 2.716875 -2.2125 1.87125 -2 1 C-1.34 0.67 -0.68 0.34 0 0 Z " fill="#9F9AC4" transform="translate(387,331)"/>
<path d="M0 0 C4.86105823 0.65069283 8.88186728 2.64445917 13.25 4.75 C14.00273193 5.10835937 14.75546387 5.46671875 15.53100586 5.8359375 C20.80356809 8.36722264 25.94311614 11.05781303 31 14 C27.23375329 15.25541557 25.62811066 14.37061958 22 13 C22 12.34 22 11.68 22 11 C21.20335937 10.96261719 20.40671875 10.92523438 19.5859375 10.88671875 C13.68223426 10.52043059 9.03056497 10.21397206 4 7 C4.33 6.34 4.66 5.68 5 5 C4.01 4.34 3.02 3.68 2 3 C2 2.34 2 1.68 2 1 C1.34 0.67 0.68 0.34 0 0 Z " fill="#57BFD3" transform="translate(259,155)"/>
<path d="M0 0 C4.24506099 2.16414874 5.71117237 3.21228829 7.375 7.75 C7.58125 8.8225 7.7875 9.895 8 11 C7.4225 10.835 6.845 10.67 6.25 10.5 C3.73335631 9.85537969 3.73335631 9.85537969 0 10 C-2.25 9 -2.25 9 -4 8 C-3.67 6.35 -3.34 4.7 -3 3 C-4.65 3 -6.3 3 -8 3 C-8 2.01 -8 1.02 -8 0 C-4.57086463 -1.14304512 -3.41406669 -1.0321597 0 0 Z " fill="#5C79BD" transform="translate(275,245)"/>
<path d="M0 0 C0.33 0.66 0.66 1.32 1 2 C3.64 2 6.28 2 9 2 C9 2.66 9 3.32 9 4 C11.97 4 14.94 4 18 4 C18 4.66 18 5.32 18 6 C20.475 6.495 20.475 6.495 23 7 C23 7.66 23 8.32 23 9 C20.20943031 8.48636573 17.51174248 7.86328789 14.77734375 7.09765625 C1.04217115 3.39488846 -12.83903768 2.73938167 -27 2 C-27 1.67 -27 1.34 -27 1 C-18.09 0.67 -9.18 0.34 0 0 Z " fill="#89B1CA" transform="translate(302,219)"/>
<path d="M0 0 C0 0.66 0 1.32 0 2 C-0.74121094 1.95101562 -1.48242188 1.90203125 -2.24609375 1.8515625 C-9.7143953 2.25410925 -16.51534707 9.95945321 -21.92602539 14.74755859 C-25.67946476 18 -25.67946476 18 -29 18 C-29.268125 18.78375 -29.53625 19.5675 -29.8125 20.375 C-31 23 -31 23 -34 25 C-32.93962575 20.44039073 -31.53775197 18.15765761 -27.73046875 15.37109375 C-25.82179292 13.91980278 -25.82179292 13.91980278 -23.68359375 11.61328125 C-20.91421487 8.91646251 -18.10264138 6.86940362 -14.875 4.75 C-13.84117187 4.06421875 -12.80734375 3.3784375 -11.7421875 2.671875 C-7.64278571 0.17252462 -4.72313163 -0.10495848 0 0 Z " fill="#389CC3" transform="translate(169,156)"/>
<path d="M0 0 C0.66 0.99 1.32 1.98 2 3 C2.66 2.67 3.32 2.34 4 2 C4 2.99 4 3.98 4 5 C6.97 5.33 9.94 5.66 13 6 C12.896875 6.763125 12.79375 7.52625 12.6875 8.3125 C12.790625 9.199375 12.89375 10.08625 13 11 C15.41055254 12.66299965 15.41055254 12.66299965 18 14 C18.33 14.99 18.66 15.98 19 17 C14.62665536 15.46230226 10.91075553 13.16012635 7.0625 10.625 C6.46759766 10.23828125 5.87269531 9.8515625 5.25976562 9.453125 C1.48808878 6.99638249 -2.25829727 4.50208519 -6 2 C-3 0 -3 0 0 0 Z " fill="#A164B8" transform="translate(275,316)"/>
<path d="M0 0 C1.4429252 3.96036916 0.73967936 7.74440305 0.1875 11.8125 C0.10435547 12.49892578 0.02121094 13.18535156 -0.06445312 13.89257812 C-0.48999586 17.17578013 -1.03901382 20.12425534 -2.03515625 23.296875 C-3.34893055 28.33921522 -3.46289588 33.24679103 -3.625 38.4375 C-3.66367188 39.45521484 -3.70234375 40.47292969 -3.7421875 41.52148438 C-3.83580872 44.01414936 -3.92153993 46.5068195 -4 49 C-4.33 49 -4.66 49 -5 49 C-5.57317114 15.45626129 -5.57317114 15.45626129 0 0 Z " fill="#8ED6E1" transform="translate(114,201)"/>
<path d="M0 0 C0.33 1.32 0.66 2.64 1 4 C0.34 4 -0.32 4 -1 4 C-1.33 5.65 -1.66 7.3 -2 9 C-3.32 9.33 -4.64 9.66 -6 10 C-6.04125 10.61875 -6.0825 11.2375 -6.125 11.875 C-7 14 -7 14 -9.8125 15.4375 C-13 16 -13 16 -15.19921875 14.53515625 C-15.79347656 14.02855469 -16.38773437 13.52195312 -17 13 C-16.35933594 12.64808594 -15.71867187 12.29617188 -15.05859375 11.93359375 C-9.18987601 8.58378914 -4.50350872 5.04035082 0 0 Z " fill="#BB7AC1" transform="translate(326,289)"/>
<path d="M0 0 C0.99 0 1.98 0 3 0 C3 0.66 3 1.32 3 2 C4.27230469 1.86078125 4.27230469 1.86078125 5.5703125 1.71875 C9.92717356 2.07603246 12.49053687 3.95016692 15.875 6.5 C16.76445312 7.14388672 16.76445312 7.14388672 17.671875 7.80078125 C19.12380319 8.8546001 20.56322345 9.92561516 22 11 C21.01 11.66 20.02 12.32 19 13 C19 12.34 19 11.68 19 11 C18.34 11 17.68 11 17 11 C17 10.34 17 9.68 17 9 C16.154375 9.268125 15.30875 9.53625 14.4375 9.8125 C10.15736247 10.04596205 8.96963123 8.92505036 5.74609375 6.34765625 C3.35096003 4.49906311 0.73597431 3.26789054 -2 2 C-1.34 1.34 -0.68 0.68 0 0 Z " fill="#35AECB" transform="translate(293,174)"/>
<path d="M0 0 C3 2 3 2 3.5 4.3125 C2.78352876 8.16353294 1.04877293 9.64413001 -2 12 C-3.34262065 11.70630173 -4.67696283 11.3721042 -6 11 C-8.75256794 12.85164036 -8.75256794 12.85164036 -11 15 C-11 13.68 -11 12.36 -11 11 C-10.01 10.34 -9.02 9.68 -8 9 C-7.896875 8.360625 -7.79375 7.72125 -7.6875 7.0625 C-7 5 -7 5 -4 3.375 C-2.515 2.694375 -2.515 2.694375 -1 2 C-0.67 1.34 -0.34 0.68 0 0 Z " fill="#33BFD9" transform="translate(139,165)"/>
<path d="M0 0 C5.87773167 0.60113165 11.32599623 1.74832315 17 3.375 C17.75539062 3.58382812 18.51078125 3.79265625 19.2890625 4.0078125 C24.30495842 5.42122647 29.14280647 7.11231797 34 9 C31 11 31 11 28.58203125 10.64453125 C27.66808594 10.36996094 26.75414062 10.09539062 25.8125 9.8125 C24.82636719 9.51988281 23.84023437 9.22726563 22.82421875 8.92578125 C20.55308997 8.18130335 18.34338519 7.38451606 16.125 6.5 C10.61442399 4.32113208 4.77771868 3.24185722 -1 2 C-0.67 1.34 -0.34 0.68 0 0 Z " fill="#7BCDDB" transform="translate(225,145)"/>
<path d="M0 0 C2.64 0 5.28 0 8 0 C2.86622301 5.73271764 -5.49108161 9.62081091 -13 11 C-15.4375 10.625 -15.4375 10.625 -17 10 C-13.55930376 7.70620251 -12.27709699 7 -8 7 C-8 6.01 -8 5.02 -8 4 C-6.68 4.33 -5.36 4.66 -4 5 C-3.67 4.34 -3.34 3.68 -3 3 C-2.34 3 -1.68 3 -1 3 C-0.67 2.01 -0.34 1.02 0 0 Z " fill="#927EBF" transform="translate(217,344)"/>
<path d="M0 0 C-0.33 0.99 -0.66 1.98 -1 3 C-3.31 3 -5.62 3 -8 3 C-8 3.66 -8 4.32 -8 5 C-15.59084981 7.58411908 -22.4367816 8.10285883 -30 5 C-30 4.67 -30 4.34 -30 4 C-28.72125 3.96261719 -27.4425 3.92523438 -26.125 3.88671875 C-24.4166396 3.82101258 -22.70830753 3.75456689 -21 3.6875 C-20.16082031 3.66494141 -19.32164062 3.64238281 -18.45703125 3.61914062 C-11.99991351 3.34383716 -6.14516899 0 0 0 Z " fill="#8BC8DC" transform="translate(186,274)"/>
<path d="M0 0 C3 2 3 2 3.51171875 4.3828125 C3.56972656 5.28773438 3.62773438 6.19265625 3.6875 7.125 C3.75324219 8.03507812 3.81898437 8.94515625 3.88671875 9.8828125 C3.92410156 10.58148438 3.96148437 11.28015625 4 12 C4.99 12.33 5.98 12.66 7 13 C7.22162329 14.62324086 7.42689803 16.248721 7.625 17.875 C7.74101563 18.77992188 7.85703125 19.68484375 7.9765625 20.6171875 C7.98429687 21.40351563 7.99203125 22.18984375 8 23 C7.34 23.66 6.68 24.32 6 25 C3.00318992 16.70624517 0.23080993 8.91765652 0 0 Z " fill="#7DC2D5" transform="translate(112,267)"/>
<path d="M0 0 C2.375 0.4375 2.375 0.4375 5 2 C7.09523774 7.09595512 7.23117565 12.5673723 7 18 C3.30772683 13.91212613 0.54606109 9.3021359 -1 4 C-0.60546875 1.72265625 -0.60546875 1.72265625 0 0 Z " fill="#6AB6D0" transform="translate(120,291)"/>
<path d="M0 0 C4.17037435 2.78024956 5.30833229 5.31490437 6.3125 10.0625 C7.35081899 16.00707435 6.2293153 20.47465401 4 26 C3.67 26 3.34 26 3 26 C2.95101563 24.87722656 2.90203125 23.75445312 2.8515625 22.59765625 C2.47797144 14.86613308 2.04678841 7.50489083 0 0 Z " fill="#7F7DB7" transform="translate(339,237)"/>
<path d="M0 0 C0.47050781 0.40992188 0.94101562 0.81984375 1.42578125 1.2421875 C2.04839844 1.78101563 2.67101562 2.31984375 3.3125 2.875 C4.23482422 3.67550781 4.23482422 3.67550781 5.17578125 4.4921875 C7.13498212 6.1640447 7.13498212 6.1640447 10 8 C10 8.66 10 9.32 10 10 C10.66 10 11.32 10 12 10 C11.67 10.66 11.34 11.32 11 12 C9.68 11.67 8.36 11.34 7 11 C6.67 11.99 6.34 12.98 6 14 C6 13.34 6 12.68 6 12 C5.01 12.33 4.02 12.66 3 13 C1.70074209 8.66914029 0.656379 4.48525648 0 0 Z " fill="#5AA4C7" transform="translate(335,202)"/>
<path d="M0 0 C2.37063979 2.98967926 4.17108586 6.05929152 5.9375 9.4375 C7.99895188 13.28280176 10.07126904 16.73333854 13 20 C12.34 20.33 11.68 20.66 11 21 C10.67 21.99 10.34 22.98 10 24 C9.01 23.01 8.02 22.02 7 21 C7.33 20.34 7.66 19.68 8 19 C6.77249184 16.35775628 6.77249184 16.35775628 5.0625 13.5 C2 8.19817768 2 8.19817768 2 6 C1.34 6 0.68 6 0 6 C0 4.02 0 2.04 0 0 Z " fill="#42A0CC" transform="translate(129,248)"/>
<path d="M0 0 C9.23076923 1.26696833 9.23076923 1.26696833 12 2 C12.33 2.66 12.66 3.32 13 4 C15.32156597 4.40729228 17.6568787 4.74438677 20 5 C20.33 5.99 20.66 6.98 21 8 C22.98 8 24.96 8 27 8 C27 8.33 27 8.66 27 9 C17.14421147 9.75813758 8.23572314 6.24091472 0 1 C0 0.67 0 0.34 0 0 Z " fill="#95A5CB" transform="translate(162,346)"/>
<path d="M0 0 C-1 2 -1 2 -4.125 3.125 C-10.59810471 4.6425044 -17.39382183 4.1548323 -24 4 C-22.68 3.67 -21.36 3.34 -20 3 C-20 2.34 -20 1.68 -20 1 C-13.28837062 0.11978631 -6.76594019 -0.11381955 0 0 Z " fill="#C8AAC8" transform="translate(370,353)"/>
<path d="M0 0 C1.39047901 2.26081587 2.05380161 3.51318221 1.7578125 6.19140625 C1.44457031 7.36509766 1.44457031 7.36509766 1.125 8.5625 C-0.44830962 15.41400961 -0.75578791 22.1719359 1 29 C1.03888349 31.33300933 1.0448635 33.66709801 1 36 C-2.59727228 30.60409158 -2.192751 24.47688507 -2.1875 18.1875 C-2.18814453 17.39230957 -2.18878906 16.59711914 -2.18945312 15.77783203 C-2.13970307 10.25896819 -1.57503315 5.3157369 0 0 Z " fill="#2F73A6" transform="translate(126,202)"/>
<path d="M0 0 C-2.3150939 2.3150939 -3.75265814 2.64760994 -6.875 3.5 C-9.46314033 4.21077287 -11.76459015 4.87758688 -14.1484375 6.1171875 C-16.70256759 7.33497949 -18.34048154 6.73875513 -21 6 C-19.60421125 3.2084225 -17.65424826 2.97034414 -14.82421875 1.99804688 C-13.79748047 1.65870117 -13.79748047 1.65870117 -12.75 1.3125 C-12.08097656 1.07466797 -11.41195312 0.83683594 -10.72265625 0.59179688 C-6.77790884 -0.72957726 -4.00019928 -1.27913349 0 0 Z " fill="#7DB0CB" transform="translate(247,244)"/>
<path d="M0 0 C4.10398401 3.27194342 7.71061656 6.15189388 10 11 C10 11.66 10 12.32 10 13 C9.01 12.67 8.02 12.34 7 12 C6.67 11.34 6.34 10.68 6 10 C2.88214887 10.64644661 2.88214887 10.64644661 2 13 C1.375 10.6875 1.375 10.6875 1 8 C1.66 7.01 2.32 6.02 3 5 C2.01 4.67 1.02 4.34 0 4 C0 2.68 0 1.36 0 0 Z " fill="#898EC3" transform="translate(281,249)"/>
<path d="M0 0 C0.33 0 0.66 0 1 0 C2.6120509 6.76485645 3.26618595 13.04958914 3 20 C0.64046906 17.64046906 0.50858587 16.22104383 0 13 C-0.33 13 -0.66 13 -1 13 C-2.0070238 7.96488101 -1.97387813 4.76052962 0 0 Z " fill="#4C63A1" transform="translate(387,290)"/>
<path d="M0 0 C0.33 0 0.66 0 1 0 C1.04898438 0.59167969 1.09796875 1.18335938 1.1484375 1.79296875 C1.56456867 6.19104472 2.04965595 9.96928897 4 14 C4.66 14 5.32 14 6 14 C6.6875 16.8125 6.6875 16.8125 7 20 C5.51953125 21.69921875 5.51953125 21.69921875 4 23 C3.87882812 22.38511719 3.75765625 21.77023437 3.6328125 21.13671875 C3.46523437 20.32847656 3.29765625 19.52023437 3.125 18.6875 C2.88136719 17.48673828 2.88136719 17.48673828 2.6328125 16.26171875 C2.05521001 13.74698882 2.05521001 13.74698882 0 11 C-0.1953125 8.30078125 -0.1953125 8.30078125 -0.125 5.3125 C-0.10695313 4.31863281 -0.08890625 3.32476562 -0.0703125 2.30078125 C-0.04710938 1.54152344 -0.02390625 0.78226562 0 0 Z " fill="#42B2CE" transform="translate(112,256)"/>
<path d="M0 0 C0.66 0.33 1.32 0.66 2 1 C-7.1875 10.74431818 -7.1875 10.74431818 -13.4375 11.3125 C-14.7059375 11.1578125 -14.7059375 11.1578125 -16 11 C-14.70046886 8.40093772 -13.3674411 7.96880487 -10.8125 6.625 C-7.04759013 4.59820347 -3.513818 2.43264323 0 0 Z " fill="#7EBFD5" transform="translate(202,263)"/>
<path d="M0 0 C3.94949704 0.62816498 7.19892028 1.8645529 10.8125 3.5625 C12.27623047 4.24505859 12.27623047 4.24505859 13.76953125 4.94140625 C14.87361328 5.46541016 14.87361328 5.46541016 16 6 C15.01 6.66 14.02 7.32 13 8 C11.68 7.34 10.36 6.68 9 6 C9 6.66 9 7.32 9 8 C7.35 7.67 5.7 7.34 4 7 C4.33 6.34 4.66 5.68 5 5 C4.01 4.34 3.02 3.68 2 3 C2 2.34 2 1.68 2 1 C1.34 0.67 0.68 0.34 0 0 Z " fill="#5AC3D9" transform="translate(259,155)"/>
<path d="M0 0 C-0.61875 0.268125 -1.2375 0.53625 -1.875 0.8125 C-4.2995233 1.95556848 -4.2995233 1.95556848 -6 5 C-8.2421875 5.984375 -8.2421875 5.984375 -10.875 6.75 C-11.73867187 7.01296875 -12.60234375 7.2759375 -13.4921875 7.546875 C-16.07268273 8.01313271 -17.54742948 7.84414055 -20 7 C-18.10545176 6.03912864 -16.20930419 5.08141031 -14.3125 4.125 C-13.25675781 3.59132812 -12.20101562 3.05765625 -11.11328125 2.5078125 C-3.51560102 -1.17186701 -3.51560102 -1.17186701 0 0 Z " fill="#80D2DF" transform="translate(171,146)"/>
<path d="M0 0 C0.671875 1.796875 0.671875 1.796875 1 4 C-0.109375 5.703125 -0.109375 5.703125 -1.75 7.25 C-2.54664063 8.03117187 -2.54664063 8.03117187 -3.359375 8.828125 C-5 10 -5 10 -8 10 C-8.33 8.02 -8.66 6.04 -9 4 C-6.94061515 3.48515379 -4.89460574 2.97892115 -2.8125 2.5625 C-2.214375 2.376875 -1.61625 2.19125 -1 2 C-0.67 1.34 -0.34 0.68 0 0 Z " fill="#774EB0" transform="translate(232,333)"/>
<path d="M0 0 C1.258125 -0.04125 2.51625 -0.0825 3.8125 -0.125 C4.52019531 -0.14820313 5.22789062 -0.17140625 5.95703125 -0.1953125 C8 0 8 0 11 2 C10.67 2.66 10.34 3.32 10 4 C7.49609375 4.4140625 7.49609375 4.4140625 4.4375 4.625 C3.42558594 4.69976562 2.41367188 4.77453125 1.37109375 4.8515625 C0.58863281 4.90054688 -0.19382813 4.94953125 -1 5 C-1 2 -1 2 0 0 Z " fill="#5177AD" transform="translate(208,232)"/>
<path d="M0 0 C3.465 1.98 3.465 1.98 7 4 C7 4.66 7 5.32 7 6 C7.53625 6.226875 8.0725 6.45375 8.625 6.6875 C11.78500863 8.43382056 14.2676983 10.6402849 17 13 C16.34 13.66 15.68 14.32 15 15 C11.09831484 13.52005046 10.09284951 11.48808251 8 8 C5.94996045 6.80767387 5.94996045 6.80767387 4 6 C3.67 5.34 3.34 4.68 3 4 C2.01 3.67 1.02 3.34 0 3 C0 2.01 0 1.02 0 0 Z " fill="#95D4E2" transform="translate(318,188)"/>
<path d="M0 0 C0.70125 0.144375 1.4025 0.28875 2.125 0.4375 C5.07556141 1.01478375 8.03270151 1.51695141 11 2 C11.66 3.98 12.32 5.96 13 8 C8.0276578 6.50829734 3.58154261 4.39542583 -1 2 C-0.67 1.34 -0.34 0.68 0 0 Z " fill="#B96CBE" transform="translate(312,342)"/>
<path d="M0 0 C0.66 0 1.32 0 2 0 C3.96611502 4.04479388 4.11331236 6.86885748 3.625 11.3125 C3.51414062 12.38113281 3.40328125 13.44976562 3.2890625 14.55078125 C3.19367188 15.35902344 3.09828125 16.16726563 3 17 C-0.51769206 11.72346191 -0.10579441 6.13607598 0 0 Z " fill="#607CAE" transform="translate(383,274)"/>
<path d="M0 0 C0.66 0 1.32 0 2 0 C6.07877462 8.03501094 6.07877462 8.03501094 5.75 12.0625 C5.5025 12.701875 5.255 13.34125 5 14 C4.67 12.68 4.34 11.36 4 10 C3.67 10.66 3.34 11.32 3 12 C2.34 12 1.68 12 1 12 C0.67 11.01 0.34 10.02 0 9 C0.33 8.34 0.66 7.68 1 7 C0.71758117 4.6599583 0.38749213 2.32495277 0 0 Z " fill="#7E71B6" transform="translate(290,262)"/>
<path d="M0 0 C1.66666667 1.66666667 3.33333333 3.33333333 5 5 C5.763125 5.721875 6.52625 6.44375 7.3125 7.1875 C9 9 9 9 9 11 C6.125 11.1875 6.125 11.1875 3 11 C0.43383368 7.15075052 0.44902324 4.5650696 0 0 Z " fill="#6BA3C5" transform="translate(351,218)"/>
<path d="M0 0 C3.27075883 -0.0580476 6.54138524 -0.09361165 9.8125 -0.125 C10.74126953 -0.14175781 11.67003906 -0.15851563 12.62695312 -0.17578125 C13.51962891 -0.18222656 14.41230469 -0.18867188 15.33203125 -0.1953125 C16.15421143 -0.20578613 16.9763916 -0.21625977 17.82348633 -0.22705078 C20 0 20 0 23 2 C21.84371094 2.07347656 21.84371094 2.07347656 20.6640625 2.1484375 C19.66117187 2.22320312 18.65828125 2.29796875 17.625 2.375 C16.62726563 2.44460937 15.62953125 2.51421875 14.6015625 2.5859375 C11.84491121 2.76363964 11.84491121 2.76363964 10 5 C10 4.01 10 3.02 10 2 C6.7 1.67 3.4 1.34 0 1 C0 0.67 0 0.34 0 0 Z " fill="#80A6C9" transform="translate(246,242)"/>
<path d="M0 0 C0.59167969 0.40992188 1.18335938 0.81984375 1.79296875 1.2421875 C2.58316406 1.78101563 3.37335938 2.31984375 4.1875 2.875 C4.96480469 3.40867187 5.74210938 3.94234375 6.54296875 4.4921875 C8.9676609 5.98015439 11.3333499 7.02428078 14 8 C14 8.33 14 8.66 14 9 C12.01432292 8.96744792 10.02864583 8.93489583 8.04296875 8.90234375 C5.79694539 8.91736783 5.79694539 8.91736783 3 10 C2.87625 9.278125 2.7525 8.55625 2.625 7.8125 C2.00886811 5.03990651 1.08268971 2.61870071 0 0 Z " fill="#559DCA" transform="translate(142,269)"/>
<path d="M0 0 C0.99 0 1.98 0 3 0 C3 0.99 3 1.98 3 3 C4.32 3.66 5.64 4.32 7 5 C6.01 6.485 6.01 6.485 5 8 C4.67 8.66 4.34 9.32 4 10 C3.67 9.01 3.34 8.02 3 7 C2.34 7 1.68 7 1 7 C-0.625 5 -0.625 5 -2 3 C-1 1 -1 1 0 0 Z " fill="#70A8CA" transform="translate(137,320)"/>
<path d="M0 0 C-0.125 1.875 -0.125 1.875 -1 4 C-3.8125 5.4375 -3.8125 5.4375 -7 6 C-9.375 4.625 -9.375 4.625 -11 3 C-9.73160474 2.49384702 -8.46016898 1.99530901 -7.1875 1.5 C-6.12595703 1.08234375 -6.12595703 1.08234375 -5.04296875 0.65625 C-3 0 -3 0 0 0 Z " fill="#B85EBA" transform="translate(320,299)"/>
<path d="M0 0 C1.5 1.25 1.5 1.25 3 3 C3 4.32 3 5.64 3 7 C0.5 9.25 0.5 9.25 -2 11 C-2.84454356 7.62182575 -3.10844919 5.32534757 -2 2 C-1.34 2 -0.68 2 0 2 C0 1.34 0 0.68 0 0 Z " fill="#8660B1" transform="translate(341,264)"/>
<path d="M0 0 C6.88831341 -0.62621031 12.58902255 1.64193933 19 4 C16 6 16 6 13.4765625 5.609375 C12.53554687 5.32578125 11.59453125 5.0421875 10.625 4.75 C9.68914062 4.47671875 8.75328125 4.2034375 7.7890625 3.921875 C5.14288905 3.04722943 2.57390151 2.06699917 0 1 C0 0.67 0 0.34 0 0 Z " fill="#6FC8D4" transform="translate(240,150)"/>
<path d="M0 0 C0.66 0.99 1.32 1.98 2 3 C2.66 2.67 3.32 2.34 4 2 C4 2.99 4 3.98 4 5 C4.66 5.33 5.32 5.66 6 6 C5.67 6.66 5.34 7.32 5 8 C0.89041233 6.54955729 -2.43258745 4.48889248 -6 2 C-3 0 -3 0 0 0 Z " fill="#A67AC0" transform="translate(275,316)"/>
<path d="M0 0 C1.5 1.375 1.5 1.375 3 3 C3 3.66 3 4.32 3 5 C2.01 5.495 2.01 5.495 1 6 C0.67 6.99 0.34 7.98 0 9 C-4.875 7.25 -4.875 7.25 -6 5 C-5.195625 4.54625 -4.39125 4.0925 -3.5625 3.625 C-0.91143428 2.25274335 -0.91143428 2.25274335 0 0 Z " fill="#374D8F" transform="translate(155,267)"/>
<path d="M0 0 C-2.83187553 2.83187553 -6.14622678 3.41788129 -10 4 C-13 3.625 -13 3.625 -15 3 C-10.77398726 -1.22601274 -5.55329835 -1.35446301 0 0 Z " fill="#789EBD" transform="translate(250,224)"/>
<path d="M0 0 C0.33 0.66 0.66 1.32 1 2 C4.63 2 8.26 2 12 2 C12 2.33 12 2.66 12 3 C9.10452736 3.33675279 6.20868928 3.66951734 3.3125 4 C2.49587891 4.09539062 1.67925781 4.19078125 0.83789062 4.2890625 C-3.12860052 4.73870522 -7.00002463 5.13034543 -11 5 C-9.68 4.67 -8.36 4.34 -7 4 C-7 3.34 -7 2.68 -7 2 C-4.69 1.34 -2.38 0.68 0 0 Z " fill="#9ABED5" transform="translate(263,219)"/>
<path d="M0 0 C0 0.66 0 1.32 0 2 C-5.29411765 6 -5.29411765 6 -9 6 C-8.625 3.0625 -8.625 3.0625 -8 0 C-5.13822943 -1.43088528 -3.06624227 -0.59991697 0 0 Z " fill="#B8AAC8" transform="translate(379,347)"/>
<path d="M0 0 C2.98479194 4.47718792 4 8.63824093 4 14 C3.34 14 2.68 14 2 14 C2 13.01 2 12.02 2 11 C0.68 11.99 -0.64 12.98 -2 14 C-1.11392405 8.43037975 -1.11392405 8.43037975 -0.4375 5.875 C0.15148641 3.67166673 0.15148641 3.67166673 0 0 Z " fill="#B487CC" transform="translate(302,290)"/>
<path d="M0 0 C2.49552403 2.27597646 4.06622986 4.60721178 5.6875 7.5625 C6.12449219 8.34753906 6.56148438 9.13257813 7.01171875 9.94140625 C8 12 8 12 8 14 C4.37720616 12.79240205 4.08839169 11.94596794 2.3125 8.6875 C1.87550781 7.90761719 1.43851562 7.12773437 0.98828125 6.32421875 C0 4 0 4 0 0 Z " fill="#7197B6" transform="translate(368,240)"/>
<path d="M0 0 C3.89006773 1.38780795 6.96558708 3.2152227 10.3125 5.625 C11.19550781 6.25664062 12.07851563 6.88828125 12.98828125 7.5390625 C13.65214844 8.02117187 14.31601562 8.50328125 15 9 C14.01 9.66 13.02 10.32 12 11 C12 10.34 12 9.68 12 9 C11.34 9 10.68 9 10 9 C10 8.34 10 7.68 10 7 C8.35 6.67 6.7 6.34 5 6 C4.67 5.01 4.34 4.02 4 3 C1.98491642 2.26676204 1.98491642 2.26676204 0 2 C0 1.34 0 0.68 0 0 Z " fill="#81CAD9" transform="translate(300,176)"/>
<path d="M0 0 C2.64 0 5.28 0 8 0 C8 0.66 8 1.32 8 2 C9.65 2.33 11.3 2.66 13 3 C13 3.66 13 4.32 13 5 C8.91333648 4.25697027 4.94981078 3.29128429 1 2 C0.67 1.34 0.34 0.68 0 0 Z " fill="#79A7C2" transform="translate(312,223)"/>
<path d="M0 0 C0.99 0.66 1.98 1.32 3 2 C1.68 2.33 0.36 2.66 -1 3 C-0.67 4.98 -0.34 6.96 0 9 C-1.32 9.33 -2.64 9.66 -4 10 C-4 10.99 -4 11.98 -4 13 C-4.99 13 -5.98 13 -7 13 C-6.34 11.68 -5.68 10.36 -5 9 C-4.34 9 -3.68 9 -3 9 C-2.67 6.69 -2.34 4.38 -2 2 C-1.34 2 -0.68 2 0 2 C0 1.34 0 0.68 0 0 Z " fill="#7A4DB1" transform="translate(251,303)"/>
<path d="M0 0 C0.99928333 2.698065 1.03624754 3.88010429 0.1875 6.6875 C-1 9 -1 9 -3 10 C-3.33 10.99 -3.66 11.98 -4 13 C-5.32 12.67 -6.64 12.34 -8 12 C-7.50628906 11.30132812 -7.01257813 10.60265625 -6.50390625 9.8828125 C-5.86324219 8.97273438 -5.22257812 8.06265625 -4.5625 7.125 C-3.92441406 6.22007812 -3.28632813 5.31515625 -2.62890625 4.3828125 C-1.00481862 2.12261419 -1.00481862 2.12261419 0 0 Z " fill="#B07FC1" transform="translate(335,276)"/>
<path d="M0 0 C-2.67478244 1.6627026 -4.9995144 2.99983813 -8 4 C-5.97675095 -0.48005146 -4.79569304 -1.43870791 0 0 Z M-8 4 C-8.33 5.32 -8.66 6.64 -9 8 C-10.65 8.33 -12.3 8.66 -14 9 C-12.87312259 5.61936778 -11.78825335 4 -8 4 Z " fill="#44A1C7" transform="translate(210,263)"/>
<path d="M0 0 C0.66 0 1.32 0 2 0 C1.95875 0.763125 1.9175 1.52625 1.875 2.3125 C1.77919176 5.22718416 1.77919176 5.22718416 4 8 C4.125 10.6875 4.125 10.6875 4 13 C1.29376042 9.84272049 -0.93018974 7.065279 -2 3 C-1.34 2.01 -0.68 1.02 0 0 Z " fill="#B84AAF" transform="translate(316,324)"/>
<path d="M0 0 C3.59391114 1.33488128 6.75490696 2.96022723 10 5 C8.68 5.33 7.36 5.66 6 6 C6 5.34 6 4.68 6 4 C4.02 4.33 2.04 4.66 0 5 C-0.33 4.01 -0.66 3.02 -1 2 C-0.67 1.34 -0.34 0.68 0 0 Z " fill="#6BC8D7" transform="translate(290,170)"/>
<path d="M0 0 C0.33 0 0.66 0 1 0 C1.05437607 1.58294782 1.09296271 3.16644256 1.125 4.75 C1.14820313 5.63171875 1.17140625 6.5134375 1.1953125 7.421875 C1 10 1 10 -1 14 C-1.66 10.37 -2.32 6.74 -3 3 C-2.34 3 -1.68 3 -1 3 C-0.67 2.01 -0.34 1.02 0 0 Z " fill="#969CC5" transform="translate(389,317)"/>
<path d="M0 0 C3.79089107 3.79089107 6.36664937 7.61651963 7 13 C3.74085049 9.91702073 0.93446327 7.0838669 -1 3 C-0.67 2.01 -0.34 1.02 0 0 Z " fill="#96C4D6" transform="translate(128,308)"/>
<path d="M0 0 C2.31 0 4.62 0 7 0 C7.33 1.32 7.66 2.64 8 4 C7.34 4 6.68 4 6 4 C5.34 4.66 4.68 5.32 4 6 C2.62437146 4.71034824 1.29233607 3.37310707 0 2 C0 1.34 0 0.68 0 0 Z " fill="#409DC5" transform="translate(328,202)"/>
<path d="M0 0 C3 1 3 1 5 3 C7.06874034 3.6425235 7.06874034 3.6425235 9 4 C8.34 4 7.68 4 7 4 C7.33 5.65 7.66 7.3 8 9 C4.48536988 7.10019993 2.10449322 5.43364683 0 2 C0 1.34 0 0.68 0 0 Z " fill="#C861AF" transform="translate(320,335)"/>
<path d="M0 0 C0.66 0.33 1.32 0.66 2 1 C1.2890625 2.921875 1.2890625 2.921875 0 5 C-2.1640625 5.828125 -2.1640625 5.828125 -4.625 6.25 C-5.85089844 6.47429687 -5.85089844 6.47429687 -7.1015625 6.703125 C-7.72804687 6.80109375 -8.35453125 6.8990625 -9 7 C-6.25604436 4.05278838 -3.61662784 1.80831392 0 0 Z " fill="#8AC2D5" transform="translate(213,256)"/>
<path d="M0 0 C1.32 0 2.64 0 4 0 C4 0.66 4 1.32 4 2 C4.66 2 5.32 2 6 2 C6.66 3.98 7.32 5.96 8 8 C6.68 7.34 5.36 6.68 4 6 C4 5.34 4 4.68 4 4 C3.01 4 2.02 4 1 4 C0.67 2.68 0.34 1.36 0 0 Z " fill="#3E6BAC" transform="translate(349,240)"/>
<path d="M0 0 C1.61949011 2.57213134 2.04408751 3.67669159 1.625 6.75 C1.41875 7.4925 1.2125 8.235 1 9 C0.01 8.67 -0.98 8.34 -2 8 C-2.6875 5.6875 -2.6875 5.6875 -3 3 C-1.5625 1.1875 -1.5625 1.1875 0 0 Z " fill="#7441B2" transform="translate(236,321)"/>
<path d="M0 0 C0.66 0 1.32 0 2 0 C3.38529821 5.45461169 4.2396943 10.36718401 4 16 C1.90649311 12.5980513 1.82057837 9.94727588 2 6 C1.34 6 0.68 6 0 6 C0 4.02 0 2.04 0 0 Z " fill="#99ACCA" transform="translate(386,284)"/>
<path d="M0 0 C0.66 0 1.32 0 2 0 C3.625 2 3.625 2 5 4 C1.04 5.98 1.04 5.98 -3 8 C-2.22404875 4.89619499 -1.4731994 2.74997221 0 0 Z " fill="#708AB6" transform="translate(196,240)"/>
<path d="M0 0 C2.97 0.495 2.97 0.495 6 1 C6.103125 1.639375 6.20625 2.27875 6.3125 2.9375 C6.539375 3.618125 6.76625 4.29875 7 5 C7.99 5.33 8.98 5.66 10 6 C9.67 6.66 9.34 7.32 9 8 C8.34 8 7.68 8 7 8 C7 7.34 7 6.68 7 6 C6.401875 5.7525 5.80375 5.505 5.1875 5.25 C2.71352479 3.83629988 1.56629745 2.34944617 0 0 Z " fill="#88AEC8" transform="translate(142,330)"/>
<path d="M0 0 C0 0.66 0 1.32 0 2 C0.66 2 1.32 2 2 2 C2.33 3.32 2.66 4.64 3 6 C1.02 5.34 -0.96 4.68 -3 4 C-3.66 4.66 -4.32 5.32 -5 6 C-5.33 4.68 -5.66 3.36 -6 2 C-2.25 0 -2.25 0 0 0 Z " fill="#957DC3" transform="translate(256,304)"/>
<path d="M0 0 C1.9451 2.91765 2.45276317 4.62537285 3 8 C2.01 8.495 2.01 8.495 1 9 C1 8.01 1 7.02 1 6 C-0.32 6.33 -1.64 6.66 -3 7 C-2.25 2.25 -2.25 2.25 0 0 Z " fill="#5D84B3" transform="translate(380,262)"/>
<path d="M0 0 C3 1 3 1 4 3 C6.01669827 4.13350534 6.01669827 4.13350534 8 5 C8 5.66 8 6.32 8 7 C6.02 7 4.04 7 2 7 C1.34 4.69 0.68 2.38 0 0 Z " fill="#40A2C5" transform="translate(319,191)"/>
<path d="M0 0 C2.31 0 4.62 0 7 0 C7.33 0.99 7.66 1.98 8 3 C9.98 3 11.96 3 14 3 C14 3.33 14 3.66 14 4 C8.32723489 4.29341888 5.00932754 4.00559652 0 1 C0 0.67 0 0.34 0 0 Z " fill="#888FBE" transform="translate(175,351)"/>
<path d="M0 0 C0.33 0.66 0.66 1.32 1 2 C0.00390625 3.9453125 0.00390625 3.9453125 -1.4375 6.125 C-1.91058594 6.84945313 -2.38367188 7.57390625 -2.87109375 8.3203125 C-3.24363281 8.87460937 -3.61617187 9.42890625 -4 10 C-5 8 -6 6 -7 4 C-5.35 4 -3.7 4 -2 4 C-2 3.01 -2 2.02 -2 1 C-1.34 0.67 -0.68 0.34 0 0 Z " fill="#AA88CA" transform="translate(249,312)"/>
<path d="M0 0 C0.66 0.33 1.32 0.66 2 1 C2 1.99 2 2.98 2 4 C1.01 4 0.02 4 -1 4 C-1.33 4.99 -1.66 5.98 -2 7 C-2.99 5.35 -3.98 3.7 -5 2 C-4.360625 1.855625 -3.72125 1.71125 -3.0625 1.5625 C-1.02454854 1.18992819 -1.02454854 1.18992819 0 0 Z " fill="#7556AF" transform="translate(262,304)"/>
<path d="M0 0 C0.99 0.495 0.99 0.495 2 1 C2.484375 3.21484375 2.484375 3.21484375 2.75 5.9375 C2.84796875 6.83339844 2.9459375 7.72929687 3.046875 8.65234375 C3 11 3 11 1 13 C-0.32229189 10.35541621 -0.09677194 8.32238699 -0.0625 5.375 C-0.05347656 4.37210937 -0.04445313 3.36921875 -0.03515625 2.3359375 C-0.02355469 1.56507813 -0.01195313 0.79421875 0 0 Z " fill="#60B8CF" transform="translate(117,279)"/>
<path d="M0 0 C1.67542976 0.28604898 3.34385343 0.61781233 5 1 C5 1.99 5 2.98 5 4 C3.35 4.33 1.7 4.66 0 5 C-0.5625 3.0625 -0.5625 3.0625 -1 1 C-0.67 0.67 -0.34 0.34 0 0 Z " fill="#4FB1CE" transform="translate(313,186)"/>
<path d="M0 0 C1.65 0.33 3.3 0.66 5 1 C4.3125 2.9375 4.3125 2.9375 3 5 C0.375 5.75 0.375 5.75 -2 6 C-2.33 5.34 -2.66 4.68 -3 4 C-2.34 4 -1.68 4 -1 4 C-0.67 2.68 -0.34 1.36 0 0 Z " fill="#A79FBF" transform="translate(378,342)"/>
<path d="M0 0 C1.12894876 0.93274109 2.25300876 1.87140122 3.375 2.8125 C4.00148438 3.33457031 4.62796875 3.85664063 5.2734375 4.39453125 C7 6 7 6 9 9 C8.01 9 7.02 9 6 9 C6 8.34 6 7.68 6 7 C3.03 6.505 3.03 6.505 0 6 C0 4.02 0 2.04 0 0 Z " fill="#B441AB" transform="translate(320,337)"/>
<path d="M0 0 C-1.05041579 2.86477034 -1.70124563 3.83913226 -4.4375 5.3125 C-7 6 -7 6 -10 5 C-9.01 4.67 -8.02 4.34 -7 4 C-7 3.34 -7 2.68 -7 2 C-2.25 0 -2.25 0 0 0 Z " fill="#506697" transform="translate(178,256)"/>
<path d="M0 0 C2.9719385 1.12451727 5.33440687 2.22293791 8 4 C8 4.66 8 5.32 8 6 C5.21788056 5.62403791 3.4120716 5.32681541 1.1875 3.5625 C0 2 0 2 0 0 Z " fill="#7284B5" transform="translate(273,245)"/>
<path d="M0 0 C0.66 0.33 1.32 0.66 2 1 C2 1.66 2 2.32 2 3 C2.66 3 3.32 3 4 3 C3.67 3.66 3.34 4.32 3 5 C1.68 4.67 0.36 4.34 -1 4 C-1.33 4.99 -1.66 5.98 -2 7 C-2 6.34 -2 5.68 -2 5 C-2.66 4.67 -3.32 4.34 -4 4 C-2.68 2.68 -1.36 1.36 0 0 Z " fill="#71B1CF" transform="translate(343,209)"/>
<path d="M0 0 C4.875 3.625 4.875 3.625 6 7 C3.0625 6.25 3.0625 6.25 0 5 C-0.9375 2.9375 -0.9375 2.9375 -1 1 C-0.67 0.67 -0.34 0.34 0 0 Z " fill="#AF60B6" transform="translate(300,333)"/>
<path d="M0 0 C2.31 0.66 4.62 1.32 7 2 C7.33 3.98 7.66 5.96 8 8 C7.34 8 6.68 8 6 8 C4.97388051 6.34928604 3.97691857 4.68029994 3 3 C1.41754725 1.24850835 1.41754725 1.24850835 0 0 Z " fill="#3B63A6" transform="translate(357,248)"/>
<path d="M0 0 C0.33 0.66 0.66 1.32 1 2 C-4.29230769 5.07692308 -4.29230769 5.07692308 -7.875 4.6875 C-8.57625 4.460625 -9.2775 4.23375 -10 4 C-9.67 3.34 -9.34 2.68 -9 2 C-6.93359375 1.3671875 -6.93359375 1.3671875 -4.4375 0.875 C-3.61121094 0.70742187 -2.78492188 0.53984375 -1.93359375 0.3671875 C-0.97646484 0.18542969 -0.97646484 0.18542969 0 0 Z " fill="#70ADC6" transform="translate(236,246)"/>
<path d="M0 0 C0.66 0 1.32 0 2 0 C5 4.38461538 5 4.38461538 5 7 C5.66 7 6.32 7 7 7 C7 7.66 7 8.32 7 9 C3.17475764 7.549046 1.80909034 5.61818068 0 2 C0 1.34 0 0.68 0 0 Z " fill="#37579D" transform="translate(371,263)"/>
<path d="M0 0 C-3.1254959 2.64465038 -6.08788267 3.84414715 -10 5 C-10 4.01 -10 3.02 -10 2 C-6.49223216 0.39644899 -3.85645121 -0.22036864 0 0 Z " fill="#708CB7" transform="translate(215,236)"/>
<path d="M0 0 C0.33 0 0.66 0 1 0 C1.17942163 3.94727588 1.09350689 6.5980513 -1 10 C-1.66 10 -2.32 10 -3 10 C-2.49287967 6.28111761 -1.88391785 3.26545761 0 0 Z " fill="#7DCDD9" transform="translate(118,191)"/>
<path d="M0 0 C1.32 0.33 2.64 0.66 4 1 C2.35 2.65 0.7 4.3 -1 6 C-1.99 5.67 -2.98 5.34 -4 5 C-3.34 4.01 -2.68 3.02 -2 2 C-1.34 2 -0.68 2 0 2 C0 1.34 0 0.68 0 0 Z " fill="#67CAD8" transform="translate(136,164)"/>
<path d="M0 0 C0.66 0 1.32 0 2 0 C2 1.65 2 3.3 2 5 C0.02 5.99 0.02 5.99 -2 7 C-2 6.34 -2 5.68 -2 5 C-2.66 4.67 -3.32 4.34 -4 4 C-3.34 4 -2.68 4 -2 4 C-2 3.34 -2 2.68 -2 2 C-1.34 2 -0.68 2 0 2 C0 1.34 0 0.68 0 0 Z " fill="#7B4CAE" transform="translate(242,318)"/>
<path d="M0 0 C3.65316671 1.24976756 4.78065836 1.67098753 7 5 C6.01 5.495 6.01 5.495 5 6 C2.9375 5.3125 2.9375 5.3125 1 4 C0.25 1.875 0.25 1.875 0 0 Z " fill="#71B8D1" transform="translate(328,197)"/>
<path d="M0 0 C0.515625 0.37125 1.03125 0.7425 1.5625 1.125 C0.82 1.269375 0.0775 1.41375 -0.6875 1.5625 C-3.36561274 2.06131867 -3.36561274 2.06131867 -5.625 2.8125 C-6.223125 2.915625 -6.82125 3.01875 -7.4375 3.125 C-8.0975 2.465 -8.7575 1.805 -9.4375 1.125 C-3.0375 -1.09038462 -3.0375 -1.09038462 0 0 Z " fill="#C680BE" transform="translate(343.4375,351.875)"/>
<path d="M0 0 C1.32 0.99 2.64 1.98 4 3 C3.34 4.32 2.68 5.64 2 7 C1.01 6.67 0.02 6.34 -1 6 C-0.67 4.02 -0.34 2.04 0 0 Z " fill="#9381BC" transform="translate(378,336)"/>
<path d="M0 0 C1.65 0.33 3.3 0.66 5 1 C3.37660195 2.70884005 1.70680947 4.37446717 0 6 C-0.66 6 -1.32 6 -2 6 C-2.33 6.66 -2.66 7.32 -3 8 C-3.33 7.01 -3.66 6.02 -4 5 C-3.01 5 -2.02 5 -1 5 C-0.67 3.35 -0.34 1.7 0 0 Z " fill="#7F8FB4" transform="translate(159,267)"/>
<path d="M0 0 C0.99 0 1.98 0 3 0 C3.33 1.32 3.66 2.64 4 4 C2.35 4.33 0.7 4.66 -1 5 C-1 2 -1 2 0 0 Z " fill="#3F6EA9" transform="translate(208,232)"/>
<path d="M0 0 C0.61875 0.350625 1.2375 0.70125 1.875 1.0625 C2.57625 1.371875 3.2775 1.68125 4 2 C4.66 1.67 5.32 1.34 6 1 C4.25 5.875 4.25 5.875 2 7 C0.5393715 4.35261084 0 3.10551666 0 0 Z " fill="#A885CF" transform="translate(237,322)"/>
<path d="M0 0 C-0.33 0.99 -0.66 1.98 -1 3 C-3.31 3 -5.62 3 -8 3 C-8.33 3.66 -8.66 4.32 -9 5 C-9.66 4.34 -10.32 3.68 -11 3 C-9.73160474 2.49384702 -8.46016898 1.99530901 -7.1875 1.5 C-6.12595703 1.08234375 -6.12595703 1.08234375 -5.04296875 0.65625 C-3 0 -3 0 0 0 Z " fill="#92D0E1" transform="translate(186,274)"/>
<path d="M0 0 C1.485 0.99 1.485 0.99 3 2 C3.1875 5.625 3.1875 5.625 3 9 C2.01 9.495 2.01 9.495 1 10 C0.67 6.7 0.34 3.4 0 0 Z " fill="#8AD1DD" transform="translate(112,267)"/>
<path d="M0 0 C0.33 1.32 0.66 2.64 1 4 C-0.98 5.32 -2.96 6.64 -5 8 C-3.8141763 4.62496331 -2.72426311 2.35277269 0 0 Z " fill="#92DAE4" transform="translate(131,170)"/>
<path d="M0 0 C0.93423645 3.01031744 1.04449911 3.86650268 0 7 C-2 5.625 -2 5.625 -4 4 C-4 3.34 -4 2.68 -4 2 C-2.68 1.34 -1.36 0.68 0 0 Z " fill="#A73DB5" transform="translate(303,329)"/>
<path d="M0 0 C2.3125 -0.3125 2.3125 -0.3125 5 0 C6.8125 2.5 6.8125 2.5 8 5 C4.62496331 3.8141763 2.35277269 2.72426311 0 0 Z " fill="#BA85C5" transform="translate(286,328)"/>
<path d="M0 0 C1.32 1.32 2.64 2.64 4 4 C3.67 4.66 3.34 5.32 3 6 C0.9375 6.625 0.9375 6.625 -1 7 C-0.67 4.69 -0.34 2.38 0 0 Z " fill="#9769B4" transform="translate(337,272)"/>
<path d="M0 0 C3.82097239 0.53069061 6.06171403 1.49701566 9 4 C6 5 6 5 2.8125 3.5625 C1.884375 3.046875 0.95625 2.53125 0 2 C0 1.34 0 0.68 0 0 Z " fill="#6ECCD9" transform="translate(266,158)"/>
<path d="M0 0 C3.37462715 0.54723683 5.08235 1.0549 8 3 C4.23375329 4.25541557 2.62811066 3.37061958 -1 2 C-0.67 1.34 -0.34 0.68 0 0 Z " fill="#31BBD6" transform="translate(257,157)"/>
<path d="M0 0 C-0.33 0.66 -0.66 1.32 -1 2 C-3.64860427 2.59355614 -6.29197322 2.74209269 -9 3 C-9.33 2.34 -9.66 1.68 -10 1 C-6.78548731 -0.60725635 -3.56387464 -0.05748185 0 0 Z " fill="#C7B6CE" transform="translate(370,353)"/>
<path d="M0 0 C1.65 0 3.3 0 5 0 C4.34 1.32 3.68 2.64 3 4 C2.01 4 1.02 4 0 4 C0 2.68 0 1.36 0 0 Z " fill="#7757A8" transform="translate(224,339)"/>
<path d="M0 0 C0.66 0.33 1.32 0.66 2 1 C0.68 2.65 -0.64 4.3 -2 6 C-2.99 5.67 -3.98 5.34 -5 5 C-4.34 4.67 -3.68 4.34 -3 4 C-2.67 3.01 -2.34 2.02 -2 1 C-1.34 0.67 -0.68 0.34 0 0 Z " fill="#46A0C6" transform="translate(216,257)"/>
<path d="M0 0 C1.98 0.66 3.96 1.32 6 2 C6 2.66 6 3.32 6 4 C3.625 4.1875 3.625 4.1875 1 4 C0.34 3.01 -0.32 2.02 -1 1 C-0.67 0.67 -0.34 0.34 0 0 Z " fill="#47629C" transform="translate(177,251)"/>
<path d="M0 0 C0.433125 0.45375 0.86625 0.9075 1.3125 1.375 C3.10798342 3.20024334 3.10798342 3.20024334 6 5 C2.23312136 5 1.08809695 4.76462683 -2 3 C-1.34 2.01 -0.68 1.02 0 0 Z " fill="#5571B3" transform="translate(273,250)"/>
<path d="M0 0 C2.72426311 2.35277269 3.8141763 4.62496331 5 8 C3.0625 7.375 3.0625 7.375 1 6 C0.25 2.875 0.25 2.875 0 0 Z " fill="#8CB2CA" transform="translate(368,240)"/>
<path d="M0 0 C1.32 1.32 2.64 2.64 4 4 C3.01 4 2.02 4 1 4 C0.67 4.66 0.34 5.32 0 6 C-0.66 4.35 -1.32 2.7 -2 1 C-1.34 0.67 -0.68 0.34 0 0 Z " fill="#6CACCC" transform="translate(347,214)"/>
<path d="M0 0 C0.28875 0.61875 0.5775 1.2375 0.875 1.875 C1.93720042 4.13325765 1.93720042 4.13325765 4 6 C2.35 6.66 0.7 7.32 -1 8 C-1.125 2.25 -1.125 2.25 0 0 Z " fill="#60C7D8" transform="translate(120,186)"/>
<path d="M0 0 C4.455 0.99 4.455 0.99 9 2 C8.67 2.66 8.34 3.32 8 4 C5.33333333 3.33333333 2.66666667 2.66666667 0 2 C0 1.34 0 0.68 0 0 Z " fill="#36B9D6" transform="translate(272,164)"/>
</svg>
